<?xml version="1.0" standalone="no"?>
<!DOCTYPE svg PUBLIC "-//W3C//DTD SVG 20010904//EN"
 "http://www.w3.org/TR/2001/REC-SVG-20010904/DTD/svg10.dtd">
<svg version="1.0" xmlns="http://www.w3.org/2000/svg"
 width="2894.000000pt" height="4093.000000pt" viewBox="0 0 2894.000000 4093.000000"
 preserveAspectRatio="xMidYMid meet">

<g transform="translate(0.000000,4093.000000) scale(0.100000,-0.100000)"
fill="#000000" stroke="none">
<path d="M16070 37121 c-94 -29 -151 -77 -225 -188 -1 -2 -42 4 -91 12 -321
51 -976 68 -1319 34 -598 -58 -1245 -240 -1790 -503 -737 -357 -1326 -827
-1843 -1475 -427 -534 -777 -1256 -936 -1931 -105 -447 -143 -814 -133 -1284
12 -561 101 -1043 293 -1583 186 -523 450 -1000 786 -1420 230 -286 434 -507
618 -667 58 -50 105 -95 105 -101 1 -5 -40 -41 -90 -79 -191 -145 -254 -205
-469 -451 -334 -381 -1112 -1349 -1325 -1648 -220 -311 -491 -791 -630 -1114
-55 -130 -151 -408 -151 -439 0 -15 -200 -315 -408 -614 -127 -182 -344 -472
-548 -736 -185 -238 -314 -419 -552 -779 -250 -378 -335 -491 -537 -710 -86
-93 -172 -193 -191 -221 -66 -95 -101 -233 -74 -284 11 -21 -17 -51 -185 -195
-276 -237 -344 -271 -715 -364 -167 -42 -381 -105 -545 -160 -148 -51 -412
-137 -585 -192 -369 -118 -431 -144 -460 -191 -71 -112 73 -388 232 -446 131
-48 203 -55 493 -49 l270 6 -90 -50 c-210 -119 -378 -203 -500 -251 -182 -72
-196 -87 -407 -443 -317 -535 -351 -598 -401 -750 -49 -148 -54 -304 -11 -362
100 -136 378 -42 646 217 60 58 111 104 112 102 2 -1 -9 -38 -25 -80 -77 -205
-141 -495 -143 -652 -1 -94 2 -110 24 -155 57 -115 171 -126 274 -27 77 75
233 295 307 435 45 86 53 73 38 -65 -6 -55 -9 -149 -7 -208 3 -104 5 -110 48
-196 59 -118 70 -123 199 -100 53 9 120 28 150 42 117 53 230 186 277 324 33
98 70 298 89 485 14 138 19 162 37 178 29 25 38 8 38 -73 0 -112 30 -541 45
-640 27 -182 97 -325 178 -363 45 -22 137 -22 208 -1 43 13 66 29 119 83 115
117 123 149 160 631 34 449 38 471 124 637 62 119 337 502 422 588 39 39 171
151 294 250 123 99 250 204 282 233 142 132 204 264 328 707 23 83 45 154 47
158 3 5 15 0 27 -11 54 -49 105 -55 160 -17 31 21 37 22 32 8 -6 -24 -24 -151
-31 -233 -3 -36 -2 -94 3 -130 5 -35 6 -77 1 -93 -35 -122 -54 -779 -40 -1352
14 -534 42 -1009 67 -1125 13 -58 38 -130 74 -210 33 -76 42 -116 85 -380 96
-589 115 -665 306 -1222 502 -1462 484 -1400 739 -2578 103 -476 144 -612 239
-795 56 -108 134 -195 269 -298 150 -115 929 -678 1007 -728 l71 -46 108 -274
c135 -340 185 -449 240 -519 23 -30 80 -118 125 -195 128 -214 239 -377 434
-638 247 -329 350 -450 587 -687 217 -217 304 -289 658 -544 291 -208 372
-262 667 -438 965 -575 1743 -991 2410 -1289 116 -51 226 -103 246 -115 19
-12 60 -29 90 -37 30 -8 108 -30 174 -50 194 -57 363 -68 557 -38 47 8 57 6
103 -19 79 -45 247 -104 498 -176 374 -107 528 -168 912 -362 l230 -116 335
-326 c505 -492 630 -605 908 -828 275 -220 497 -272 719 -171 77 36 208 175
282 299 108 182 388 750 401 816 17 77 1 268 -34 409 -59 238 -268 897 -378
1190 -63 167 -177 435 -272 640 -30 65 -53 121 -51 124 3 2 37 -19 77 -46 201
-138 658 -356 980 -468 210 -73 485 -125 663 -125 164 0 318 34 470 104 324
150 446 550 329 1076 -84 376 -312 883 -592 1315 -406 627 -1040 1294 -1703
1792 -379 285 -776 482 -1054 523 -106 16 -105 16 -105 43 0 44 -31 142 -69
222 -92 189 -228 300 -438 357 -62 16 -109 21 -228 22 -140 0 -164 -3 -350
-42 -110 -23 -267 -60 -350 -82 -327 -89 -357 -92 -654 -65 -314 29 -539 70
-824 151 -324 92 -595 213 -927 414 -102 61 -216 128 -255 147 -108 55 -309
117 -545 167 -413 89 -838 213 -868 253 -36 49 -36 85 -4 295 18 112 35 228
39 258 8 52 11 57 78 113 78 65 120 120 136 181 10 36 8 274 -4 646 l-2 45
117 3 118 3 -1 -109 c0 -138 21 -201 87 -262 78 -71 155 -91 256 -65 114 29
166 60 252 148 86 88 233 279 286 371 18 32 36 54 41 49 5 -5 -7 -64 -26 -133
-40 -142 -89 -382 -106 -520 -14 -112 -6 -308 17 -419 41 -203 167 -328 308
-307 89 14 239 135 329 266 l54 80 7 -79 c16 -198 98 -384 219 -498 82 -78
127 -98 222 -98 70 0 87 4 135 30 84 46 153 122 199 217 44 93 93 257 115 386
19 109 62 489 79 687 l12 150 76 -145 c178 -342 343 -584 519 -762 84 -85 120
-114 173 -139 60 -28 76 -31 137 -27 59 3 75 8 107 34 81 65 128 167 160 350
15 83 15 109 5 206 -39 347 -92 501 -372 1078 -207 425 -271 596 -316 845 -21
117 -24 358 -7 611 24 355 -12 569 -166 1012 -34 96 -61 178 -61 183 0 5 7 9
16 9 33 0 136 64 188 117 66 67 131 190 151 288 21 102 19 255 -5 351 -25 102
-96 244 -154 312 -25 30 -46 55 -46 57 0 2 -9 55 -20 118 -30 179 -43 470 -30
704 9 174 32 390 42 397 1 2 93 54 203 116 452 258 742 483 1214 945 107 105
222 223 257 264 114 133 191 306 369 831 189 559 253 733 345 950 119 281 317
704 355 759 89 130 244 440 291 581 24 72 28 102 29 195 0 104 -3 122 -58 320
-199 715 -301 1065 -320 1097 -29 49 -317 349 -492 512 -257 240 -681 595
-831 695 -149 100 -294 142 -422 124 -124 -18 -551 -140 -587 -167 l-31 -24
-108 73 -108 74 41 20 c22 12 69 46 103 77 35 31 131 107 213 169 221 166 333
262 500 430 652 651 1112 1463 1334 2350 59 240 108 528 132 785 19 201 16
710 -4 900 -92 833 -339 1548 -774 2239 -362 572 -897 1128 -1434 1488 -329
221 -845 499 -1017 549 -118 35 -143 51 -287 193 -197 193 -331 289 -454 325
-57 17 -148 20 -191 7z m232 -201 c7 -11 18 -20 25 -20 7 0 10 -7 7 -15 -4 -9
-1 -15 7 -15 26 0 72 -48 66 -70 -3 -14 0 -20 10 -20 17 0 93 -77 93 -94 0 -6
14 -24 30 -40 16 -16 33 -38 36 -50 4 -11 17 -29 30 -39 13 -10 24 -23 24 -28
0 -8 7 -17 55 -70 8 -9 15 -21 15 -28 0 -6 7 -14 15 -17 8 -4 15 -12 15 -20 0
-8 5 -14 10 -14 6 0 10 -7 10 -15 0 -8 5 -15 10 -15 6 0 10 -7 10 -15 0 -8 4
-15 9 -15 5 0 16 -16 25 -35 9 -19 20 -35 25 -35 4 0 14 -12 22 -27 8 -15 26
-40 42 -57 15 -17 27 -38 27 -48 0 -9 11 -25 25 -36 14 -11 25 -23 25 -26 0
-3 16 -26 35 -52 27 -35 36 -42 41 -30 3 9 12 16 19 16 7 0 23 9 36 19 l24 19
52 -78 c221 -331 476 -814 719 -1362 359 -812 540 -1317 680 -1894 143 -594
179 -1191 103 -1719 -23 -159 -45 -253 -95 -404 -38 -112 -132 -314 -144 -309
-4 2 -31 32 -60 67 -51 62 -53 65 -41 95 94 229 131 474 131 874 0 578 -76
1146 -231 1727 -241 899 -785 2135 -1254 2846 -178 270 -317 441 -521 638 -80
78 -149 141 -155 141 -5 0 -37 21 -71 46 -75 56 -231 134 -267 134 -17 0 -22
3 -15 10 15 15 152 -15 187 -41 l27 -20 0 30 c0 16 6 31 15 35 8 3 15 12 15
21 0 9 9 15 25 15 15 0 25 -6 25 -15 0 -10 10 -14 35 -13 32 1 34 3 20 18 -8
9 -15 22 -15 28 0 7 -4 12 -10 12 -5 0 -10 7 -10 15 0 21 18 19 32 -5z m-902
-130 c91 -6 212 -18 270 -26 201 -30 188 -30 219 0 l28 27 69 -37 c177 -96
307 -198 479 -375 373 -385 701 -933 1094 -1834 258 -590 466 -1180 596 -1690
58 -229 126 -552 149 -710 14 -95 47 -433 61 -632 7 -92 1 -110 -24 -80 -6 8
-29 22 -51 32 -33 15 -53 38 -104 114 -85 130 -125 173 -269 288 -167 135
-279 244 -327 319 -22 34 -93 165 -158 291 -168 323 -285 510 -395 631 -30 33
-46 60 -43 70 12 44 16 362 7 497 -27 359 -67 516 -146 565 -67 41 -188 18
-313 -60 -36 -23 -68 -37 -72 -33 -4 4 -32 46 -62 93 -100 155 -379 465 -468
519 -69 41 -129 17 -150 -60 -5 -19 -26 -162 -45 -319 -48 -384 -94 -580 -171
-733 -20 -39 -28 -46 -47 -43 -453 95 -575 110 -735 95 -223 -21 -399 -67
-685 -180 -193 -76 -271 -97 -406 -110 -124 -11 -183 -28 -221 -63 -14 -12
-45 -28 -70 -35 -88 -25 -194 -85 -251 -141 -44 -43 -61 -71 -84 -130 -15 -41
-28 -76 -29 -77 -3 -4 -189 -33 -273 -43 -64 -7 -115 -7 -170 1 -96 13 -453
89 -793 168 -140 33 -361 84 -490 115 -129 30 -305 66 -390 81 -85 14 -213 37
-285 51 -150 30 -195 28 -236 -12 -38 -37 -57 -102 -70 -247 -12 -136 -3 -269
38 -512 13 -82 28 -217 33 -300 11 -171 24 -254 50 -305 21 -42 61 -239 84
-420 23 -176 45 -243 103 -314 102 -126 291 -236 783 -454 643 -285 788 -381
894 -591 71 -139 47 -353 -54 -487 -102 -136 -298 -188 -458 -122 -64 26 -64
26 -57 5 16 -54 24 -107 25 -169 0 -37 4 -78 10 -93 8 -22 5 -32 -26 -71 -67
-89 -79 -151 -43 -218 11 -21 19 -39 17 -40 -2 -2 -24 -17 -49 -34 -105 -70
-189 -206 -197 -316 -6 -78 12 -183 48 -276 16 -41 32 -83 36 -92 14 -39 -22
-13 -142 105 -242 234 -521 568 -701 838 -376 562 -635 1219 -747 1894 -44
262 -58 413 -63 685 -8 391 15 669 83 1025 228 1185 891 2237 1879 2980 540
406 1166 701 1851 871 217 53 539 108 724 124 74 6 155 12 180 14 75 7 585 -3
760 -14z m1773 -486 c4 -7 15 -10 24 -7 12 5 15 2 10 -10 -4 -10 -2 -16 6 -14
7 1 11 -4 10 -10 -2 -7 8 -15 22 -19 14 -3 23 -10 20 -14 -3 -5 -1 -11 4 -14
5 -3 11 3 14 15 5 19 7 19 34 6 27 -14 88 -79 88 -95 0 -4 13 -20 28 -37 46
-50 56 -63 50 -69 -3 -2 3 -15 12 -28 l17 -23 -7 23 c-9 32 10 28 51 -13 33
-33 44 -41 44 -31 0 3 -11 17 -25 32 -13 14 -22 31 -19 36 4 6 0 14 -7 19 -7
4 -10 11 -6 15 9 10 38 -27 32 -42 -4 -13 32 -7 41 7 3 5 12 9 20 9 10 0 13
-7 9 -22 -4 -17 0 -27 16 -36 11 -8 18 -9 14 -3 -12 20 5 11 40 -20 22 -21 32
-36 27 -47 -5 -14 -3 -15 10 -4 16 13 52 6 43 -8 -3 -5 -1 -11 5 -15 6 -4 8
-10 6 -14 -3 -4 1 -8 9 -8 23 0 18 23 -10 45 -14 11 -25 25 -25 30 0 6 -14 20
-31 32 -59 43 -19 31 51 -14 70 -45 120 -90 120 -107 0 -5 9 -9 20 -9 11 0 20
-4 20 -9 0 -11 39 -55 107 -120 15 -15 43 -45 62 -66 57 -68 105 -120 111
-121 22 -4 40 -19 36 -31 -3 -8 -1 -11 4 -8 6 3 10 2 10 -3 0 -6 11 -13 24
-16 18 -4 23 -11 19 -26 -3 -11 0 -20 6 -20 19 0 12 39 -9 50 -11 6 -20 19
-20 28 0 10 -6 24 -12 31 -10 11 -10 13 0 7 7 -4 12 -2 12 6 1 8 6 6 15 -6 7
-10 19 -15 25 -11 7 5 9 -2 4 -20 -6 -25 -4 -27 22 -23 23 2 29 -2 34 -22 4
-14 13 -24 20 -22 7 2 10 -3 7 -12 -5 -12 0 -15 16 -13 13 1 21 -3 20 -10 -2
-7 5 -22 15 -34 9 -11 25 -30 35 -41 9 -12 17 -25 17 -30 0 -4 4 -7 10 -6 5 2
18 -13 28 -31 23 -44 42 -51 42 -17 0 13 4 27 8 30 8 4 112 -105 112 -117 0
-6 34 -47 68 -84 12 -13 22 -29 22 -35 0 -18 31 -48 49 -48 9 0 34 -23 56 -50
47 -59 55 -76 31 -67 -11 4 -16 1 -16 -9 0 -12 6 -15 25 -10 21 5 32 -4 96
-86 233 -302 482 -744 632 -1123 84 -213 182 -510 172 -525 -3 -5 -2 -10 3
-10 12 0 63 -208 69 -280 9 -112 11 -275 4 -288 -5 -8 -4 -32 1 -54 4 -22 5
-44 1 -51 -3 -6 -8 -86 -9 -178 -1 -92 -5 -172 -8 -177 -3 -4 0 -19 7 -33 7
-13 12 -53 11 -89 -1 -36 3 -81 9 -101 6 -25 6 -43 -2 -56 -5 -11 -8 -23 -5
-25 5 -6 7 -145 4 -320 -2 -67 -6 -101 -15 -108 -11 -9 -11 -18 -3 -42 8 -22
8 -36 0 -48 -5 -9 -7 -22 -3 -29 10 -15 7 -74 -5 -92 -5 -8 -10 -41 -11 -74
-3 -57 -8 -108 -13 -130 -1 -5 -2 -18 -1 -27 1 -10 -1 -18 -6 -18 -4 0 -8 -15
-9 -32 0 -18 -4 -51 -8 -73 -4 -22 -8 -53 -10 -70 -2 -16 -5 -30 -6 -30 -3 0
-10 -38 -14 -72 -2 -18 -7 -38 -12 -45 -6 -7 -11 -26 -13 -43 -1 -16 -9 -55
-17 -85 -30 -110 -34 -126 -39 -165 -3 -21 -9 -42 -14 -45 -4 -3 -7 -13 -5
-22 2 -19 -46 -150 -116 -313 -179 -419 -492 -907 -799 -1246 -70 -78 -79 -84
-89 -68 -8 12 -18 16 -29 12 -18 -6 -27 -13 -70 -53 -13 -11 -29 -20 -36 -20
-7 0 -18 -5 -24 -11 -14 -14 -52 -36 -75 -45 -10 -3 -18 -10 -18 -15 0 -5 -5
-9 -11 -9 -6 0 -30 -13 -54 -30 -24 -16 -46 -30 -48 -30 -3 0 -38 -19 -78 -41
-40 -23 -77 -42 -83 -43 -6 -1 -36 -16 -66 -34 -30 -17 -59 -32 -65 -32 -5 0
-44 -18 -86 -39 -42 -22 -79 -37 -82 -35 -3 3 -25 -5 -49 -19 -41 -23 -227
-93 -273 -103 -11 -2 -58 -17 -105 -33 -47 -16 -104 -31 -128 -35 -23 -3 -51
-10 -63 -16 -11 -6 -33 -10 -50 -8 l-29 3 23 35 c98 144 319 554 374 693 14
37 32 67 39 67 31 0 79 59 119 145 23 49 45 102 48 117 6 23 14 28 55 33 255
33 431 163 555 410 67 134 82 202 82 365 -1 135 -3 151 -31 233 l-31 88 69 82
c192 228 302 618 327 1159 28 589 -57 1145 -288 1893 -113 365 -206 610 -436
1150 -328 768 -586 1264 -899 1730 -56 82 -110 162 -120 178 l-19 29 34 -17
c19 -10 37 -24 42 -31z m107 -54 c0 -5 -7 -7 -15 -4 -8 4 -15 8 -15 10 0 2 7
4 15 4 8 0 15 -4 15 -10z m1000 -660 c0 -5 -7 -10 -15 -10 -8 0 -15 5 -15 10
0 6 7 10 15 10 8 0 15 -4 15 -10z m30 -14 c0 -3 -4 -8 -10 -11 -5 -3 -10 -1
-10 4 0 6 5 11 10 11 6 0 10 -2 10 -4z m306 -293 c-4 -4 -11 -2 -15 6 -5 7
-12 12 -17 11 -5 -1 -13 7 -19 17 -5 10 -16 22 -22 26 -7 4 -13 16 -13 25 0
11 15 2 47 -30 26 -26 44 -51 39 -55z m-2580 -775 c129 -133 232 -254 303
-357 l51 -74 -44 -38 c-23 -21 -69 -59 -101 -85 -75 -61 -518 -384 -527 -384
-4 0 4 26 17 58 12 31 35 98 50 147 15 50 31 99 36 110 5 11 13 40 18 65 5 25
18 77 29 117 11 40 18 74 15 77 -3 2 0 27 6 55 10 49 20 179 24 338 1 46 5 83
8 83 3 0 55 -51 115 -112z m749 -415 c52 -137 82 -628 55 -908 -6 -55 -13
-143 -16 -195 -3 -52 -8 -102 -11 -110 -4 -8 -7 -18 -8 -22 -2 -5 -4 -9 -5
-10 -1 -2 -4 -16 -6 -33 -14 -127 -30 -232 -55 -365 -30 -158 -46 -265 -55
-379 -3 -36 -7 -68 -10 -73 -3 -4 0 -8 5 -8 6 0 11 6 11 13 0 6 18 48 40 92
l40 80 0 -76 c0 -74 -1 -78 -52 -163 -29 -47 -79 -119 -110 -159 -32 -39 -85
-108 -119 -152 l-62 -80 7 45 c64 444 61 516 -28 835 -42 147 -44 162 -39 246
3 49 9 89 12 89 3 0 5 18 5 41 -1 27 13 74 42 142 53 127 115 332 151 502 32
152 40 388 14 418 -31 38 -55 22 -184 -125 -140 -162 -208 -225 -422 -393 -82
-65 -153 -122 -156 -126 -3 -5 -21 -20 -39 -34 l-34 -25 48 2 c44 3 49 1 51
-20 1 -12 11 -32 22 -45 29 -31 101 -150 232 -379 122 -217 171 -315 178 -362
3 -17 15 -56 28 -86 43 -105 61 -228 76 -532 l11 -227 -31 -42 c-30 -42 -39
-69 -22 -69 28 0 324 238 384 308 27 31 72 104 100 161 l52 104 0 131 c0 90
10 194 30 333 15 112 30 201 32 199 2 -2 22 -73 44 -157 85 -331 134 -447 255
-597 66 -81 214 -231 195 -197 -29 53 -124 275 -150 353 -16 48 -43 120 -60
160 -53 128 -209 647 -198 658 7 7 129 -194 266 -439 183 -329 234 -395 399
-522 34 -26 62 -52 62 -57 0 -12 42 -71 58 -81 6 -4 12 -14 12 -21 0 -7 11
-24 24 -38 12 -14 34 -43 46 -64 l24 -37 -35 7 c-114 23 -298 28 -444 10 -36
-4 -42 -1 -57 27 -10 17 -18 37 -18 45 0 8 -4 14 -9 14 -5 0 -12 8 -14 18 -3
9 -4 -13 -2 -50 l2 -67 -76 -17 c-42 -9 -120 -32 -173 -51 -54 -19 -102 -32
-108 -28 -5 3 -10 2 -10 -4 0 -5 -53 -37 -117 -71 -253 -131 -464 -311 -593
-507 -138 -209 -242 -517 -281 -827 -14 -112 -7 -449 11 -555 18 -108 94 -306
142 -374 l22 -30 -30 -23 c-23 -19 -28 -30 -25 -59 3 -35 2 -36 -75 -71 -235
-107 -411 -172 -749 -275 -296 -90 -262 -93 -320 21 -65 130 -111 306 -136
519 -15 132 -8 271 16 307 16 25 16 26 -2 22 -10 -1 -27 -21 -38 -43 -18 -36
-20 -59 -19 -210 2 -281 51 -508 145 -667 l28 -47 -72 -21 c-169 -50 -209 -61
-337 -96 -227 -61 -279 -73 -452 -109 -426 -88 -724 -128 -943 -128 -229 0
-389 31 -548 105 -142 66 -164 65 -376 -27 -180 -78 -250 -97 -348 -99 -82 -1
-107 12 -160 85 -18 24 -42 57 -54 72 l-21 28 28 40 c36 52 117 125 168 152
33 16 65 21 159 25 116 4 319 -12 364 -29 13 -5 23 -6 23 -4 0 18 -242 105
-362 130 -38 8 -92 15 -119 15 -49 0 -58 7 -38 27 7 7 3 18 -15 38 -14 15 -26
32 -26 37 0 5 -4 7 -9 4 -5 -3 -14 0 -20 8 -9 10 -3 19 27 39 52 37 71 42 297
81 129 23 244 50 325 77 69 23 127 43 130 46 3 3 -22 2 -55 -1 -33 -4 -171
-11 -306 -16 -136 -5 -270 -15 -299 -21 -41 -9 -58 -8 -76 2 -30 16 -30 28 2
99 l26 57 51 -20 c74 -29 256 -36 329 -13 70 22 233 103 250 123 12 15 7 16
-47 10 -33 -4 -127 -12 -210 -18 -127 -9 -161 -8 -223 5 -98 20 -137 45 -149
95 l-10 39 45 -20 c134 -60 356 39 464 206 63 98 91 200 92 336 0 145 -23 226
-94 333 -130 194 -291 296 -875 555 -458 203 -590 278 -718 408 -73 73 -90
111 -147 314 -28 102 -56 198 -61 214 -5 16 -7 31 -6 33 8 7 414 -246 460
-287 28 -25 65 -73 90 -119 79 -145 102 -161 410 -297 60 -26 150 -72 200
-102 215 -127 403 -222 440 -222 42 0 77 36 77 81 0 53 -111 133 -292 211 -51
21 -174 80 -273 130 -163 81 -187 91 -250 95 -113 9 -147 33 -228 158 -93 145
-111 161 -413 381 -201 147 -206 153 -235 322 l-18 107 27 25 c37 34 126 183
153 256 12 32 25 63 29 67 4 4 43 -8 86 -27 105 -46 160 -58 208 -45 51 14
100 60 125 119 15 34 27 50 40 50 33 0 180 -30 370 -76 101 -25 188 -43 192
-42 12 4 -489 160 -533 166 -34 4 -38 8 -44 41 -14 86 -64 194 -121 261 l-26
31 24 -5 c13 -3 67 -15 119 -26 52 -12 198 -46 324 -76 452 -109 1019 -214
1151 -214 87 0 230 27 313 58 39 15 52 17 52 7 0 -16 22 -25 62 -25 46 0 90
53 118 141 13 40 36 87 51 104 34 38 124 87 199 109 57 16 335 66 369 66 11 0
57 -26 103 -57 96 -66 229 -134 308 -158 154 -47 207 -84 255 -178 l27 -52 -4
65 c-4 73 -31 137 -81 194 -26 30 -55 45 -162 85 -71 26 -175 71 -229 98 -94
47 -98 50 -70 57 16 4 109 39 206 77 222 86 341 122 498 148 176 30 272 27
600 -19 157 -22 291 -41 298 -43 7 -1 -18 -25 -55 -54 -37 -28 -104 -88 -148
-132 l-80 -81 107 0 107 0 50 44 c27 24 181 140 343 257 365 264 462 338 563
426 83 71 168 127 246 163 54 24 75 25 84 3z m-285 -606 c-28 -170 -61 -301
-72 -285 -4 7 -8 10 -8 6 0 -3 -25 2 -56 13 -52 18 -66 19 -163 9 -129 -14
-259 -34 -286 -45 -28 -12 -22 -6 90 77 163 121 273 217 395 345 l115 120 3
-59 c2 -33 -6 -114 -18 -181z m-5859 -308 c88 -17 114 -27 170 -65 102 -68
210 -210 224 -293 9 -52 -16 -111 -45 -111 -12 0 -65 18 -118 41 -113 48 -167
54 -209 23 -35 -26 -68 -83 -88 -150 -9 -28 -21 -59 -28 -69 -21 -28 -52 222
-52 415 0 166 8 230 29 230 7 0 60 -9 117 -21z m5737 -18 c10 -6 10 -10 -3
-21 -8 -7 -15 -19 -15 -26 0 -8 -4 -14 -10 -14 -5 0 -10 -7 -10 -15 0 -7 -6
-18 -13 -22 -6 -4 -19 -21 -27 -37 -8 -15 -25 -38 -37 -50 -13 -11 -23 -26
-23 -31 0 -6 -9 -17 -20 -25 -11 -8 -20 -19 -20 -24 0 -5 -11 -19 -25 -32 -33
-31 -41 -68 -20 -100 9 -14 15 -30 13 -35 -2 -6 -43 69 -91 167 -48 97 -86
179 -83 181 5 5 260 79 296 86 42 7 74 7 88 -2z m1605 -1479 c21 -21 34 -42
30 -47 -5 -4 -3 -5 4 -2 6 4 25 -9 42 -30 17 -21 28 -39 24 -40 -5 -2 -35 5
-68 15 -58 18 -60 19 -61 53 0 19 4 37 10 41 6 4 0 15 -15 27 -13 11 -19 20
-14 21 6 0 28 -17 48 -38z m-124 -236 c11 -10 21 -28 23 -40 3 -20 8 -21 141
-23 141 -2 213 -15 200 -36 -3 -7 -3 -9 2 -5 11 10 45 -10 45 -27 0 -8 9 -15
20 -15 11 0 20 -4 20 -10 0 -5 14 -8 30 -6 l30 3 0 -107 c0 -59 -3 -134 -6
-168 l-7 -61 -36 29 c-47 37 -114 63 -231 88 -422 91 -824 6 -1071 -225 -205
-191 -329 -531 -329 -899 0 -249 36 -422 124 -590 l42 -81 -116 -33 c-63 -18
-156 -49 -207 -68 l-92 -34 -25 28 c-14 16 -28 37 -31 47 -4 9 -13 17 -21 17
-8 0 -12 5 -9 10 3 6 -1 10 -10 10 -10 0 -13 -5 -9 -12 4 -8 3 -10 -2 -5 -5 5
-10 13 -10 18 -1 5 -2 14 -3 19 -2 16 -29 12 -39 -6 -6 -11 -17 4 -45 63 -52
111 -76 185 -83 261 -6 51 -4 63 6 57 9 -6 10 2 4 36 -14 67 -9 322 6 371 7
24 21 72 32 108 11 36 24 73 29 82 5 10 9 27 9 38 0 11 4 20 9 20 5 0 11 14
15 32 3 18 16 42 28 55 12 13 19 23 15 23 -7 0 47 105 67 130 7 8 18 27 26 43
7 15 17 27 22 27 4 0 8 11 8 25 0 14 5 25 10 25 6 0 10 10 10 23 0 12 7 35 15
51 8 15 15 35 15 42 0 8 7 14 15 14 9 0 15 9 15 24 0 14 4 28 10 31 5 3 17 23
27 43 9 20 27 46 39 57 12 11 25 31 29 44 7 24 157 181 173 181 5 0 26 16 46
35 21 19 41 33 45 30 5 -2 18 7 29 20 14 16 32 25 52 25 18 0 30 5 30 13 0 24
33 45 125 81 190 73 329 96 557 93 145 -2 169 -5 187 -21z m153 -48 c-9 -9
-12 -7 -12 12 0 19 3 21 12 12 9 -9 9 -15 0 -24z m-1297 -270 c-21 -24 -85
-90 -144 -148 -58 -58 -110 -113 -116 -122 -18 -31 -158 -233 -167 -243 -20
-21 44 110 91 188 51 85 133 183 211 254 60 54 153 123 158 118 3 -3 -12 -24
-33 -47z m1165 -99 c150 -13 278 -43 365 -84 106 -51 110 -57 96 -159 -14
-103 -34 -181 -68 -269 -20 -52 -30 -66 -42 -62 -9 4 -50 16 -90 27 -65 18
-95 20 -230 15 -183 -5 -278 -26 -416 -91 -117 -56 -186 -112 -239 -194 -53
-83 -70 -127 -87 -222 -36 -204 -1 -399 111 -620 77 -153 231 -275 396 -316
38 -9 70 -18 72 -19 1 -1 -18 -46 -44 -99 -29 -61 -52 -96 -62 -96 -22 0 -181
87 -347 189 -109 67 -161 107 -236 181 -88 87 -101 105 -152 210 -64 131 -81
189 -102 348 -36 274 2 543 110 779 138 301 415 465 830 492 11 0 72 -4 135
-10z m254 -699 c83 -25 180 -148 229 -290 25 -73 30 -100 30 -190 1 -161 -41
-290 -138 -425 -156 -220 -410 -294 -632 -185 -129 64 -209 172 -278 375 -52
155 -43 368 22 487 64 118 223 204 438 239 67 10 280 3 329 -11z m-1133 -1225
c33 -30 78 -67 102 -83 66 -46 376 -222 437 -249 30 -14 57 -26 58 -28 2 -2
-28 -62 -66 -132 -159 -293 -422 -701 -456 -708 -107 -22 -188 -35 -214 -35
-54 0 -35 -15 21 -16 60 -2 147 -11 153 -17 2 -2 -26 -39 -63 -82 l-66 -78
-276 6 c-334 8 -1244 62 -1721 103 -348 29 -814 87 -835 104 -5 4 -39 10 -75
13 -114 11 -667 144 -770 186 -22 9 -20 10 20 10 172 3 774 103 1120 187 80
20 277 74 438 120 279 80 294 83 322 69 41 -21 57 -19 35 5 -10 11 -16 22 -14
24 2 2 65 22 139 44 295 89 606 200 775 277 33 15 67 28 75 29 27 4 75 17 95
27 11 5 34 11 50 13 17 2 63 13 103 26 54 16 87 21 130 17 87 -8 96 4 44 54
-23 23 -41 43 -39 45 2 2 90 28 196 58 106 30 196 57 199 60 12 13 27 4 83
-49z m-4513 -957 c28 -6 52 -15 52 -21 0 -6 3 -7 7 -4 3 4 14 -7 24 -23 11
-17 26 -30 34 -30 9 0 26 -7 38 -15 24 -15 147 -59 152 -53 1 2 7 12 14 23 11
18 12 17 6 -8 -4 -21 -2 -28 7 -25 26 9 20 41 -14 71 -37 33 -39 34 97 -23
337 -138 909 -280 1395 -344 366 -49 719 -79 1460 -126 891 -55 1218 -61 1480
-24 84 12 233 17 317 11 13 0 27 -27 18 -35 -3 -3 -19 2 -36 12 -16 10 -37 15
-45 12 -18 -7 -18 -35 1 -42 24 -10 17 -33 -12 -40 -16 -4 -34 -11 -41 -17
-13 -10 -147 -20 -254 -18 -7 0 -40 -2 -73 -4 -100 -6 -119 -18 -95 -55 8 -12
10 -11 10 6 0 35 13 36 25 2 12 -35 8 -71 -5 -63 -5 3 -11 1 -14 -4 -11 -17
72 -23 227 -17 83 3 219 9 301 12 l149 6 -5 -26 c-4 -19 2 -30 23 -47 16 -12
29 -28 29 -34 0 -7 7 -18 15 -25 17 -14 21 -45 5 -35 -6 4 -10 -5 -10 -20 0
-18 -4 -25 -13 -22 -6 2 -18 -2 -25 -9 -10 -11 -6 -13 23 -12 44 2 55 -9 23
-21 -14 -5 -28 -17 -32 -26 -4 -12 -13 -15 -30 -11 -15 4 -28 0 -36 -9 -9 -11
-17 -12 -32 -4 -14 7 -23 7 -33 -1 -7 -6 -35 -12 -61 -14 -27 -2 -51 -5 -54
-6 -5 -3 -37 -7 -107 -11 -24 -2 -43 -7 -43 -11 0 -4 -21 -8 -47 -8 -27 0
-122 -1 -213 -2 -103 -2 -244 4 -375 16 -268 24 -639 24 -1074 1 -179 -9 -338
-15 -355 -12 -17 2 -40 1 -51 -3 -13 -5 -26 -2 -37 8 -13 11 -18 12 -18 2 0
-12 -16 -11 -100 5 -8 1 -23 -2 -32 -7 -12 -6 -18 -5 -18 2 0 6 -10 8 -24 4
-14 -3 -30 -3 -36 1 -6 4 -45 8 -88 11 -111 6 -247 19 -247 23 0 1 -25 4 -55
6 -30 3 -65 7 -77 10 -14 3 -23 1 -23 -6 0 -8 -12 -10 -34 -6 -19 3 -36 2 -38
-3 -3 -8 -213 14 -245 25 -6 2 -9 13 -6 24 5 19 3 20 -27 10 -18 -7 -35 -8
-39 -3 -6 8 -49 15 -98 14 -12 0 -25 5 -28 10 -8 14 -45 13 -45 -1 0 -8 -4 -8
-12 -1 -12 9 -55 20 -154 38 -33 6 -106 13 -146 14 -15 1 -30 5 -33 11 -4 5
-10 7 -14 5 -10 -6 -284 60 -494 119 -451 128 -767 254 -976 388 -100 65 -222
185 -253 249 -42 85 -41 88 22 109 30 11 61 27 68 37 7 10 44 24 90 34 70 15
82 15 131 1 54 -15 56 -15 121 17 8 4 16 17 18 29 3 19 8 21 37 15 18 -3 42
-1 52 5 10 6 27 9 38 6 11 -3 44 -11 73 -17z m4766 -339 c5 -5 15 -4 23 3 10
8 20 8 37 0 17 -7 27 -7 35 1 8 8 14 8 23 -1 7 -7 36 -12 65 -12 46 0 53 -3
53 -19 0 -11 9 -23 21 -26 11 -4 18 -12 16 -18 -2 -8 -47 -14 -128 -18 -68 -3
-134 -9 -147 -13 -13 -4 -65 -11 -116 -14 l-93 -7 56 73 56 73 45 -7 c25 -3
49 -10 54 -15z m-5534 -9 c0 -18 161 -179 229 -229 79 -58 211 -132 341 -191
275 -124 800 -284 1279 -391 189 -42 190 -43 163 -59 -80 -49 -254 -304 -367
-535 -75 -153 -165 -373 -206 -502 -13 -40 -26 -73 -29 -73 -4 0 -103 47 -221
104 -414 200 -1316 625 -1454 684 -77 34 -203 84 -280 112 -77 29 -141 53
-143 55 -3 3 287 568 321 625 29 49 202 261 279 343 59 62 88 81 88 57z m6000
-272 c0 -5 -9 -3 -20 4 -11 7 -20 16 -20 20 0 5 9 3 20 -4 11 -7 20 -16 20
-20z m77 -45 c142 -90 340 -274 441 -408 166 -222 205 -444 112 -642 -26 -57
-112 -163 -131 -163 -4 0 -14 12 -22 28 -7 15 -29 54 -47 87 -18 33 -45 82
-59 108 -14 26 -43 67 -63 90 -21 23 -55 62 -75 86 -21 24 -50 57 -65 73 -16
16 -28 33 -28 38 0 5 -6 13 -13 17 -38 24 -109 148 -81 142 36 -9 80 30 75 64
-1 5 2 6 7 3 5 -3 16 4 25 15 10 11 31 22 47 26 21 4 30 11 30 24 0 14 7 19
25 19 33 0 32 17 -4 51 -34 32 -34 70 0 102 27 25 24 43 -13 74 -18 16 -45 40
-61 56 -16 15 -31 27 -34 27 -9 0 -132 104 -132 113 -1 12 6 9 66 -30z m1168
-37 c40 -19 95 -49 122 -67 100 -68 366 -285 593 -483 142 -124 644 -620 670
-662 29 -46 363 -1230 375 -1325 12 -103 -38 -241 -187 -516 -59 -109 -78
-132 -78 -95 0 63 -122 534 -201 779 -28 85 -48 160 -46 166 2 7 -2 20 -10 29
-9 9 -16 30 -17 45 -1 15 -7 38 -14 51 -7 12 -10 27 -7 32 3 5 -4 25 -15 45
-11 20 -22 44 -24 53 -1 9 -8 29 -14 45 -28 66 -30 75 -21 84 7 7 2 17 -15 30
-18 14 -23 26 -19 42 4 15 -2 29 -21 46 -14 13 -26 33 -26 43 0 11 -7 25 -15
32 -8 7 -15 23 -15 35 0 13 -7 26 -16 29 -9 3 -14 13 -11 20 3 8 -1 17 -9 20
-8 3 -14 13 -14 22 0 9 -12 28 -26 41 -17 16 -24 31 -21 44 4 13 0 22 -11 27
-9 3 -27 15 -39 27 -11 11 -33 29 -47 40 -27 20 -49 43 -171 175 -81 87 -160
160 -265 246 -122 99 -667 504 -892 662 -164 115 -205 148 -191 154 17 7 429
111 483 121 56 12 142 -3 215 -37z m-1218 -142 c-3 -3 -12 -4 -19 -1 -8 3 -5
6 6 6 11 1 17 -2 13 -5z m898 -408 c696 -511 850 -645 1042 -900 237 -315 473
-948 623 -1666 16 -80 37 -162 47 -183 16 -38 16 -39 -10 -90 -15 -29 -27 -59
-27 -67 -1 -8 -47 -108 -104 -222 l-102 -207 -145 147 c-173 175 -596 632
-643 694 -106 139 -486 723 -680 1045 -5 9 -2 11 8 7 9 -3 16 -12 16 -18 0 -7
11 -18 24 -25 13 -7 30 -25 37 -40 8 -14 22 -32 32 -39 9 -7 17 -20 17 -28 0
-8 11 -20 25 -26 13 -6 27 -19 30 -29 4 -10 25 -33 48 -51 23 -18 34 -23 25
-12 -10 11 -18 28 -18 37 0 9 -9 21 -21 27 -12 7 -18 18 -15 26 3 8 1 14 -4
14 -6 0 -10 5 -10 12 0 6 -12 23 -27 37 -31 29 -46 50 -67 98 -8 17 -26 42
-40 54 -14 13 -26 28 -26 35 0 7 -4 14 -8 16 -11 4 -72 94 -72 106 0 5 -9 17
-20 27 -11 10 -20 23 -20 30 0 7 -9 20 -20 30 -11 10 -20 23 -20 30 0 6 -11
22 -25 35 -14 13 -25 31 -25 40 0 10 -11 29 -25 44 -14 15 -25 32 -25 37 0 6
-10 25 -23 42 -12 18 -28 41 -35 52 -7 11 -22 36 -35 55 -12 19 -22 40 -22 45
-1 6 29 42 66 81 194 207 232 509 99 777 -22 43 -34 74 -27 70 7 -4 98 -70
202 -147z m-4614 0 c79 -13 205 -32 279 -41 74 -10 136 -19 138 -20 2 -2 -16
-51 -40 -105 -6 -14 -14 -34 -18 -45 -4 -11 -20 -46 -34 -78 -14 -32 -26 -61
-26 -66 0 -5 -33 -62 -74 -128 -125 -201 -233 -431 -281 -601 -20 -70 -93
-248 -110 -270 -1 -1 -62 27 -136 62 -126 61 -312 125 -406 141 -24 4 -43 10
-43 13 0 4 9 20 19 35 10 16 17 37 14 47 -3 10 4 27 16 39 12 12 21 29 21 39
0 9 9 36 19 59 11 23 17 44 14 47 -3 3 2 21 11 40 9 19 16 41 16 50 0 9 5 16
10 16 6 0 10 9 10 20 0 23 20 70 30 70 4 0 10 18 14 40 3 22 11 40 16 40 6 0
10 8 10 18 0 10 7 27 15 38 8 10 15 27 15 36 0 9 7 21 16 26 9 5 15 12 15 15
-3 23 1 37 19 57 11 13 20 29 20 36 0 16 96 184 152 266 43 64 78 91 78 61 0
-14 3 -13 15 7 8 14 18 33 21 43 8 21 -7 22 165 -7z m2754 -81 c94 -8 213 -22
265 -30 131 -19 328 -78 414 -123 135 -71 296 -252 415 -467 52 -95 58 -111
46 -125 -26 -29 -28 -64 -4 -94 l22 -28 -21 -125 c-25 -142 -94 -361 -150
-478 -61 -126 -176 -313 -180 -293 -4 20 21 247 43 403 9 55 29 151 46 213 41
146 31 157 -37 45 -52 -86 -93 -251 -153 -608 -78 -471 -95 -690 -87 -1150 14
-828 35 -1082 136 -1655 100 -568 139 -807 146 -890 l7 -84 -104 93 c-200 179
-378 301 -607 417 -349 177 -738 260 -979 210 -126 -27 -371 -138 -473 -215
-52 -39 -146 -146 -171 -194 -7 -12 15 3 47 34 110 103 195 149 391 212 185
60 249 70 397 65 438 -17 1011 -290 1418 -677 l88 -83 0 -232 c0 -265 -9 -378
-50 -674 -42 -299 -54 -487 -45 -742 3 -118 10 -243 14 -277 4 -35 3 -63 -1
-63 -4 0 -33 23 -65 51 -137 121 -284 200 -495 268 -266 85 -530 83 -703 -5
-107 -54 -261 -180 -340 -278 -41 -52 -75 -97 -75 -102 0 -4 19 10 43 33 105
100 268 197 420 249 218 75 476 49 785 -78 133 -55 207 -100 366 -225 88 -70
100 -83 115 -128 9 -28 38 -77 65 -110 52 -64 92 -139 122 -225 28 -82 26
-282 -4 -364 -44 -118 -123 -208 -209 -237 -32 -10 -36 -9 -51 12 -25 36 -51
59 -66 59 -8 0 -36 33 -62 73 -149 223 -346 330 -609 330 -177 0 -366 -53
-598 -169 -140 -69 -256 -142 -357 -223 -74 -59 -105 -97 -139 -169 -23 -48
-26 -51 -55 -45 -67 12 -213 66 -266 98 -56 34 -147 121 -169 162 -18 36 -49
200 -66 355 -36 343 -47 462 -55 603 -8 146 -23 244 -39 255 -4 3 -18 68 -30
145 -12 77 -56 309 -97 516 l-74 376 19 54 c62 181 182 288 421 378 342 128
745 138 1205 31 216 -50 670 -277 816 -407 50 -45 52 -46 29 -13 -97 140 -507
418 -726 492 -96 32 -329 81 -469 99 -118 14 -398 14 -505 0 -292 -41 -577
-157 -707 -290 -27 -27 -64 -76 -84 -110 l-36 -60 -53 256 c-46 224 -51 261
-41 290 13 35 8 53 -14 53 -17 0 -10 -30 -91 365 -83 408 -178 918 -198 1060
-8 61 -31 189 -51 285 -60 290 -205 951 -221 1008 -17 61 -20 39 57 422 74
371 191 1264 161 1235 -10 -10 -40 -133 -158 -640 -95 -410 -173 -887 -159
-972 4 -21 17 -94 31 -163 13 -69 57 -307 99 -530 116 -628 148 -794 153 -807
2 -7 0 -13 -6 -13 -10 0 -39 52 -237 430 -87 165 -183 326 -247 415 -5 6 -11
6 -17 0 -13 -13 8 -95 54 -210 61 -150 368 -730 460 -870 51 -77 54 -86 84
-234 17 -85 31 -162 31 -170 0 -13 -12 -16 -57 -16 -32 0 -173 -6 -313 -14
-255 -13 -452 -10 -720 10 -200 15 -258 26 -333 61 l-69 33 6 40 c26 167 252
1126 320 1356 l38 126 101 10 c122 14 193 35 241 75 64 53 68 138 9 201 -33
36 -151 114 -211 141 -31 14 -41 24 -37 35 4 9 31 122 61 251 126 547 183 720
411 1255 47 110 125 304 173 430 103 270 137 346 223 498 87 152 164 271 260
400 l81 108 65 -7 c134 -16 587 -4 1146 30 147 9 720 -3 880 -19z m-6028 -131
l53 -5 -44 -87 c-24 -48 -55 -106 -68 -129 -27 -47 -9 -48 -139 11 -31 14 -59
26 -62 26 -4 0 -16 9 -26 19 -19 19 -19 19 5 25 13 4 24 13 24 20 0 8 6 17 13
20 8 3 7 9 -7 20 -15 13 -17 18 -7 30 7 8 10 20 7 25 -4 5 3 16 14 24 20 14
109 14 237 1z m354 -105 c208 -74 444 -179 1542 -680 l447 -204 -6 -40 c-4
-22 -28 -94 -54 -160 -48 -121 -80 -214 -100 -292 -6 -24 -15 -43 -19 -43 -8
0 -407 186 -696 325 -240 115 -373 174 -580 257 -110 44 -210 86 -222 94 -12
8 -29 14 -36 14 -8 0 -25 8 -38 19 -13 10 -35 22 -49 26 -14 4 -74 31 -135 60
-60 29 -132 63 -160 75 -27 13 -103 48 -168 79 l-118 57 21 26 c11 14 20 29
20 32 0 20 196 406 206 406 2 0 67 -23 145 -51z m7037 -251 c7 -7 12 -16 12
-20 0 -13 -37 -9 -49 5 -20 24 14 38 37 15z m-64 -23 c-4 -8 -1 -15 5 -15 6 0
11 -9 11 -20 0 -25 35 -27 48 -4 9 15 12 15 31 2 18 -13 19 -17 8 -27 -8 -6
-17 -8 -20 -4 -4 3 -7 1 -7 -5 0 -13 -101 -82 -120 -82 -5 0 -10 9 -10 20 0
11 -6 36 -14 54 -13 32 -13 33 5 29 15 -4 19 0 19 19 0 21 17 38 47 47 1 1 0
-6 -3 -14z m219 -247 c21 -51 5 -56 -26 -9 -19 29 -23 41 -14 50 14 14 21 6
40 -41z m-145 -65 c10 -16 81 -129 157 -253 411 -669 756 -1204 881 -1369 43
-57 88 -120 99 -140 11 -20 30 -51 42 -70 l21 -33 -53 -107 c-82 -162 -234
-557 -360 -931 -61 -185 -117 -345 -123 -356 -16 -31 -108 -113 -217 -195
-225 -170 -814 -559 -845 -559 -9 0 -13 21 -80 415 -56 332 -85 578 -99 850
-20 378 -33 915 -28 1168 l6 257 29 53 c39 71 100 169 112 181 6 6 12 2 16
-10 4 -10 19 -46 35 -80 16 -33 29 -66 29 -72 0 -17 18 -15 28 4 11 20 4 56
-9 48 -5 -3 -9 2 -9 10 0 13 4 14 25 4 13 -6 22 -15 18 -21 -3 -5 0 -8 7 -5
19 6 25 28 8 28 -8 0 -14 9 -15 20 -2 17 1 18 17 10 10 -5 25 -7 33 -4 17 6
33 -28 22 -46 -6 -10 7 -14 34 -10 7 1 24 -8 36 -20 20 -18 23 -19 21 -5 -1 9
-9 21 -17 26 -11 7 -11 9 4 9 9 0 17 4 17 10 0 18 28 -1 34 -24 3 -12 23 -42
46 -66 22 -25 40 -53 40 -63 0 -9 10 -22 23 -28 12 -6 29 -24 36 -41 14 -30
21 -40 65 -90 11 -13 27 -36 35 -51 8 -15 18 -27 23 -27 4 0 8 -9 8 -21 0 -12
8 -23 20 -26 11 -3 24 -20 31 -40 6 -19 19 -39 30 -46 10 -6 19 -16 19 -22 0
-6 9 -18 20 -28 11 -9 20 -25 20 -36 0 -10 7 -21 15 -25 8 -3 15 -11 15 -18 0
-12 55 -68 66 -68 10 0 2 25 -18 53 -30 42 -48 76 -48 92 0 8 -12 28 -26 45
-15 17 -24 34 -20 37 3 3 -3 12 -14 20 -11 8 -20 25 -20 37 0 13 -7 29 -15 36
-8 7 -15 19 -15 26 0 8 -4 14 -9 14 -15 0 -42 62 -35 82 3 10 2 18 -3 17 -23
-4 -32 4 -46 40 -9 22 -21 42 -27 46 -5 3 -10 14 -10 23 0 10 -20 47 -45 84
-25 37 -45 72 -45 78 0 6 -11 22 -24 35 -14 14 -33 39 -43 57 -10 18 -24 39
-31 46 -7 8 -28 37 -46 66 -19 28 -43 61 -55 73 -26 27 -26 28 1 55 20 20 21
23 5 26 -9 2 -17 8 -17 14 0 6 -7 19 -15 28 -23 26 -20 59 13 140 16 42 35 96
42 120 11 41 13 43 26 26 12 -17 17 -18 59 -6 43 12 47 12 61 -9 22 -31 57
-62 63 -56 2 3 -5 14 -17 25 -21 20 -26 32 -23 58 1 6 -3 12 -9 12 -5 0 -10
11 -10 25 0 13 -6 28 -12 32 -7 4 -17 15 -23 24 -5 9 -22 32 -37 50 -26 33
-26 37 -18 104 5 39 9 105 10 147 l0 78 38 19 c49 25 48 25 70 -6z m-7339
-114 c451 -149 888 -318 1331 -517 298 -133 746 -312 783 -312 7 0 22 -6 32
-14 18 -13 17 -14 -7 -47 -73 -97 -193 -392 -279 -685 l-62 -210 -66 8 c-210
25 -329 58 -886 243 -741 246 -1192 416 -1421 535 -75 38 -140 68 -144 65 -29
-18 -2 54 115 307 83 181 152 316 187 365 53 77 119 181 172 276 15 26 34 47
42 47 9 0 100 -28 203 -61z m2516 -270 c22 -5 142 -42 266 -81 203 -64 226
-73 221 -90 -4 -15 -7 -17 -13 -6 -6 9 -9 4 -9 -14 0 -15 -26 -90 -59 -165
-32 -76 -75 -181 -95 -235 l-37 -96 -127 43 c-161 54 -281 99 -354 132 -51 23
-58 29 -58 55 0 41 87 296 116 338 13 19 29 51 35 70 20 59 41 68 114 49z
m5303 -135 c-4 -3 -12 5 -18 18 -12 22 -12 22 6 6 10 -10 15 -20 12 -24z
m-738 -254 c0 -5 -5 -10 -11 -10 -5 0 -7 5 -4 10 3 6 8 10 11 10 2 0 4 -4 4
-10z m-4674 -299 c98 -33 217 -65 264 -72 47 -7 86 -13 88 -14 1 -1 -7 -28
-18 -61 -37 -105 -79 -280 -126 -522 -40 -211 -68 -333 -80 -354 -3 -4 -26 0
-52 8 -62 19 -193 19 -259 -1 -68 -20 -158 -101 -174 -155 -35 -115 69 -229
269 -294 28 -10 52 -21 52 -26 0 -5 -13 -44 -29 -87 -16 -43 -34 -98 -41 -123
-8 -25 -16 -49 -19 -55 -6 -11 -8 -18 -17 -60 -4 -16 -12 -37 -19 -45 -7 -8
-16 -31 -19 -51 -8 -52 -24 -89 -38 -90 -10 0 -10 -2 -1 -6 8 -3 9 -10 3 -21
-5 -9 -16 -34 -25 -54 -10 -22 -22 -35 -29 -32 -9 3 -17 -10 -24 -38 -11 -46
-52 -257 -57 -298 -2 -13 -10 -56 -19 -95 -23 -111 -85 -421 -92 -465 -17
-104 -17 -104 15 -122 17 -9 31 -24 31 -33 0 -8 5 -15 11 -15 7 0 9 -10 5 -27
-3 -16 -8 -41 -10 -58 -3 -16 -18 -111 -34 -210 -17 -99 -37 -241 -46 -315
-23 -187 -25 -201 -39 -199 -25 3 -38 -1 -32 -11 4 -6 16 -8 27 -4 19 6 20 3
15 -37 -3 -24 -13 -125 -22 -224 -20 -217 -21 -225 -40 -225 -17 0 -19 -106
-6 -390 6 -131 5 -169 -6 -185 -17 -25 -17 -45 2 -65 10 -11 19 -55 25 -126 6
-60 19 -161 31 -224 19 -110 113 -536 143 -647 l14 -53 -108 0 c-60 0 -121 5
-135 10 -23 9 -26 14 -20 39 3 16 1 68 -6 116 -6 49 -12 99 -13 111 0 14 -5
19 -10 14 -5 -5 -10 -62 -12 -127 -1 -65 -3 -126 -4 -135 -1 -16 -16 -18 -168
-17 -92 1 -198 4 -237 8 l-70 6 -7 85 c-3 47 -9 117 -12 155 -19 245 -25 833
-11 1240 10 298 13 357 16 375 1 8 1 27 1 42 -2 26 -3 26 -29 12 -16 -7 -32
-14 -37 -14 -10 0 -3 110 20 307 12 105 55 295 210 915 107 431 215 869 239
973 24 105 87 368 139 585 53 217 103 427 112 465 19 82 48 143 58 126 10 -16
26 -14 26 4 0 8 -4 15 -10 15 -22 0 -28 35 -13 73 13 32 19 38 38 33 21 -5 23
0 40 77 10 45 18 92 17 105 -1 12 3 22 9 22 7 0 9 9 6 21 -3 12 0 28 9 36 8 8
14 30 14 48 0 19 5 46 12 62 6 15 10 38 9 51 -1 12 2 22 7 22 5 0 13 23 16 52
4 28 13 63 20 77 7 14 16 46 19 71 3 24 12 49 19 55 7 5 14 28 16 50 2 22 8
45 13 51 5 6 6 14 2 17 -13 14 18 6 193 -52z m-3254 -198 l21 -23 -66 0 c-55
0 -65 3 -61 15 5 12 10 13 19 5 10 -9 16 -7 24 8 13 25 36 24 63 -5z m259 -16
c224 -104 739 -294 1349 -497 567 -190 723 -232 910 -246 87 -7 91 -8 86 -28
-4 -12 -26 -102 -50 -201 -24 -99 -73 -281 -109 -405 -85 -299 -85 -298 -86
-277 -1 9 -4 17 -8 18 -5 0 -17 2 -28 4 -11 3 -55 9 -98 15 -44 6 -89 15 -101
20 -12 4 -38 8 -58 8 -19 0 -44 5 -55 10 -11 6 -28 11 -39 11 -85 1 -534 124
-706 192 -26 11 -54 19 -62 19 -8 0 -30 6 -48 14 -18 8 -49 21 -70 30 -20 9
-41 16 -47 16 -11 0 -124 42 -176 65 -16 7 -39 16 -50 19 -19 5 -51 16 -220
81 -38 15 -90 34 -115 43 l-44 16 70 12 c115 19 158 51 171 127 4 28 -1 46
-20 80 -32 53 -78 87 -188 133 -97 41 -160 46 -251 20 -129 -38 -180 -113
-142 -211 8 -19 7 -19 -10 -2 -9 9 -25 17 -35 17 -9 0 -29 10 -43 21 -23 18
-25 24 -13 35 7 8 21 14 29 14 10 0 13 6 10 15 -9 21 -21 19 -50 -10 -14 -14
-27 -25 -30 -25 -8 0 7 44 17 51 5 3 7 19 3 36 -6 31 -7 31 -181 108 l-33 15
21 52 c11 29 37 95 57 146 39 101 43 104 107 73 21 -10 46 -16 57 -13 10 2 18
-1 18 -9 0 -7 3 -9 6 -6 4 4 19 0 33 -8 14 -7 43 -17 64 -20 20 -3 37 -9 37
-13 0 -5 28 -14 63 -21 34 -7 67 -17 73 -22 6 -5 31 -13 55 -18 94 -20 354
-93 364 -102 5 -5 21 -9 36 -9 15 0 30 -4 34 -10 3 -5 12 -7 19 -4 8 3 17 1
20 -5 4 -6 13 -8 21 -4 9 3 21 0 29 -6 7 -6 33 -15 57 -21 24 -5 69 -16 99
-25 30 -9 93 -25 140 -35 47 -10 101 -23 120 -29 19 -6 39 -11 45 -11 20 0
-21 20 -75 36 -30 9 -60 20 -66 25 -7 6 -20 12 -30 14 -19 4 -149 54 -209 79
-71 31 -161 66 -168 66 -4 0 -27 9 -50 19 -23 11 -85 36 -137 56 -52 20 -109
43 -127 51 -17 8 -35 14 -40 14 -6 0 -25 8 -44 17 -19 10 -38 18 -44 20 -34 8
-193 78 -213 94 -13 10 -29 16 -34 13 -5 -3 -15 1 -21 10 -7 9 -24 18 -37 19
-35 2 -100 41 -92 53 4 6 35 14 69 17 118 12 168 56 167 145 0 28 1 52 2 52 1
0 44 -20 95 -43z m-629 -389 c-7 -7 -12 -8 -12 -2 0 14 12 26 19 19 2 -3 -1
-11 -7 -17z m9828 -287 c0 -5 6 -16 13 -23 6 -7 28 -37 47 -65 37 -56 50 -65
50 -34 0 10 7 24 16 31 13 12 43 -15 217 -192 111 -113 224 -223 250 -244 l48
-39 -46 -110 c-63 -150 -148 -388 -305 -850 -203 -600 -259 -724 -389 -868
-111 -124 -482 -480 -634 -609 -273 -231 -484 -377 -797 -550 l-65 -36 7 66
c3 37 10 198 14 357 9 390 0 511 -71 941 -7 40 -7 40 37 59 184 83 928 592
1059 725 69 71 84 105 195 458 143 454 330 992 345 992 5 0 9 -4 9 -9z m-9024
-153 c28 -10 69 -34 90 -52 51 -44 38 -59 -55 -64 -111 -6 -247 33 -271 79 -9
15 -5 21 21 34 39 21 107 34 139 27 14 -3 48 -13 76 -24z m-1703 -135 c-72
-236 -203 -1095 -293 -1928 -12 -110 -25 -208 -28 -217 -6 -13 -26 -1 -110 68
-189 153 -407 285 -610 369 -61 25 -122 45 -136 45 -14 0 -26 2 -26 5 0 9 219
334 324 480 55 77 188 257 296 400 193 255 345 469 505 712 44 67 83 119 86
117 4 -2 0 -25 -8 -51z m4553 16 c26 -7 43 -16 40 -23 -2 -6 -14 -41 -27 -78
-16 -51 -26 -68 -40 -68 -33 0 -158 52 -184 76 -35 33 -29 55 25 82 50 25 115
29 186 11z m-3635 -75 c47 -23 52 -24 68 -10 10 9 21 16 26 16 5 0 92 -42 194
-94 316 -160 576 -264 1032 -415 254 -83 384 -115 689 -170 365 -65 442 -74
571 -68 l117 5 -15 -66 c-15 -65 -174 -708 -194 -786 l-10 -38 -62 6 c-222 24
-1316 315 -2059 546 -177 55 -598 198 -607 206 -4 4 28 249 65 494 23 151 29
175 77 282 29 65 53 117 55 118 1 0 25 -12 53 -26z m136 -1168 c571 -183 1436
-423 1898 -526 77 -17 169 -40 204 -51 36 -11 93 -19 132 -19 38 0 69 -4 69
-10 0 -15 -109 -450 -115 -461 -4 -5 -12 -9 -20 -9 -19 0 -21 -11 -45 -210
-11 -96 -23 -181 -26 -189 -2 -8 -9 -71 -14 -140 -6 -69 -13 -145 -16 -169
l-6 -42 -49 1 c-41 2 -46 4 -32 14 18 13 14 14 -97 30 -19 3 -64 10 -100 15
-36 6 -85 13 -110 16 -25 3 -92 15 -150 26 -58 11 -115 21 -127 23 -11 2 -36
8 -55 13 -18 6 -64 18 -103 27 -38 10 -153 40 -255 67 -102 27 -201 52 -220
55 -19 3 -40 9 -46 14 -6 5 -32 12 -58 15 -26 4 -49 11 -52 15 -3 5 -16 9 -30
9 -13 0 -32 4 -42 9 -9 5 -47 17 -85 26 -37 10 -70 21 -73 26 -3 5 -21 9 -40
9 -19 0 -48 7 -63 15 -16 8 -30 12 -33 10 -2 -3 -35 7 -74 21 -38 14 -78 27
-89 28 -11 2 -54 15 -95 29 -41 14 -92 28 -112 32 -21 4 -43 13 -49 21 -6 8
-29 17 -51 20 -21 4 -41 11 -44 15 -3 5 -10 6 -16 3 -6 -4 -14 0 -19 7 -4 8
-12 14 -16 15 -24 1 -73 17 -73 22 0 4 -13 13 -30 20 -16 8 -30 18 -30 24 0 6
6 5 15 -2 13 -11 18 -10 30 6 12 16 12 19 -1 22 -16 4 -19 22 -4 22 5 0 7 13
4 29 -6 27 -4 29 17 25 l24 -5 -22 12 c-13 7 -23 21 -23 31 0 16 3 17 23 7 12
-6 19 -8 15 -4 -15 16 13 33 44 28 26 -4 30 -2 21 9 -17 20 -9 53 13 53 10 1
30 -7 43 -17 30 -23 101 -25 101 -3 0 8 7 15 15 15 29 0 -13 47 -58 65 -51 20
-91 39 -219 100 -100 48 -116 67 -83 95 16 13 20 40 7 40 -8 0 -6 39 4 88 5
23 44 32 44 10 0 -9 3 -9 11 -1 14 14 4 44 -13 41 -7 -2 -12 8 -12 22 -1 23 2
25 47 24 37 -1 50 3 57 17 6 10 17 16 25 13 8 -4 15 -1 15 5 0 6 -4 11 -9 11
-5 0 -11 11 -14 26 -4 22 -1 25 22 22 34 -4 52 19 40 50 -13 33 -4 42 33 35
24 -5 29 -3 23 7 -6 10 0 12 30 7 34 -6 36 -5 19 8 -11 8 -15 15 -10 15 5 0 3
7 -4 15 -7 8 -11 15 -9 16 2 0 13 2 24 5 11 2 29 0 40 -6 11 -5 42 -16 70 -25
27 -9 56 -22 64 -28 11 -10 13 -9 9 3 -2 8 -24 22 -49 30 -45 17 -95 40 -138
65 l-25 14 26 11 c27 13 36 57 13 66 -22 9 -8 84 15 84 5 0 72 -20 147 -44z
m-2152 -601 c255 -119 535 -303 711 -465 l46 -42 -36 -351 c-46 -452 -77 -601
-152 -733 -28 -49 -66 -117 -84 -151 -18 -35 -36 -63 -39 -63 -8 1 -74 89 -83
112 -4 10 -15 21 -25 25 -10 4 -65 48 -123 98 -136 118 -321 256 -440 330 -95
58 -403 218 -555 287 -84 38 -114 73 -100 117 20 64 271 341 309 341 23 0 294
-76 376 -105 79 -28 450 -253 507 -308 36 -34 51 -32 32 5 -24 46 -92 119
-214 229 -210 189 -265 220 -481 272 l-133 32 97 131 c53 71 124 171 157 221
69 106 48 104 230 18z m5390 -264 c3 -5 40 -9 83 -9 174 1 202 -1 202 -17 0
-13 4 -14 20 -5 10 6 36 8 57 5 21 -3 88 -7 148 -10 61 -3 139 -7 175 -10 125
-9 235 -15 305 -18 39 -1 76 -6 83 -10 6 -5 17 -5 23 -1 16 10 79 14 79 6 0
-4 28 -7 63 -6 34 0 96 -3 137 -8 41 -4 90 -8 109 -8 18 1 42 -7 52 -16 11 -9
19 -13 19 -8 1 28 20 -29 26 -76 4 -30 8 -62 9 -70 1 -8 5 -22 8 -30 16 -43
27 -125 17 -128 -7 -3 -5 -9 5 -16 11 -8 17 -34 21 -91 3 -43 9 -84 15 -91 5
-7 12 -35 16 -63 5 -47 4 -51 -15 -51 -11 0 -24 -5 -27 -10 -4 -6 -10 -8 -15
-5 -4 3 -10 -1 -13 -9 -3 -7 -28 -16 -56 -20 -28 -4 -61 -11 -74 -16 l-22 -9
22 0 c12 -1 24 -5 28 -10 3 -6 19 -17 36 -25 28 -14 33 -14 46 0 10 9 23 12
37 8 11 -4 33 -7 49 -6 18 2 27 -3 27 -12 0 -8 4 -16 8 -18 10 -3 64 -259 57
-266 -7 -7 -274 -60 -465 -92 -307 -52 -420 -62 -650 -62 -294 0 -432 15 -762
83 l-57 12 6 61 c3 33 13 131 22 216 l16 155 30 -2 30 -2 -29 12 -28 12 6 75
c14 169 94 670 107 670 4 0 10 -4 14 -9z m-3353 -639 c582 -194 1087 -321
1653 -418 168 -29 398 -39 478 -20 l38 8 -8 -138 c-4 -77 -7 -486 -6 -910 l1
-771 -101 4 c-155 7 -267 28 -432 85 -277 94 -312 112 -1045 538 -580 338
-689 397 -997 546 -205 99 -243 121 -243 139 0 11 5 26 10 31 6 6 22 96 35
200 31 238 65 485 101 729 l27 190 153 -76 c101 -50 217 -98 336 -137z m-2580
-339 c204 -103 333 -185 503 -317 135 -106 265 -223 265 -239 0 -7 -43 -142
-95 -300 -103 -312 -157 -434 -233 -518 -26 -29 -157 -140 -292 -247 -327
-261 -391 -326 -583 -597 -152 -213 -237 -357 -271 -459 -26 -78 -34 -169 -51
-576 -9 -212 -20 -402 -26 -422 -11 -43 -74 -126 -119 -158 -37 -26 -135 -39
-168 -21 -12 6 -32 30 -46 54 -57 97 -79 251 -110 755 -18 285 -21 271 113
551 104 217 211 494 197 508 -2 2 -46 -63 -99 -144 -103 -160 -220 -366 -289
-508 -42 -87 -44 -89 -114 -128 -39 -21 -76 -48 -83 -59 -7 -11 -26 -127 -42
-257 -43 -341 -61 -431 -109 -527 -69 -142 -170 -211 -332 -231 l-48 -6 -21
49 c-13 30 -23 78 -26 124 -6 85 18 316 48 465 28 143 127 534 143 570 36 81
269 339 469 523 134 123 177 171 177 202 0 21 -26 8 -165 -85 -138 -92 -254
-184 -363 -289 -66 -63 -215 -233 -231 -263 -6 -12 -25 -81 -41 -153 -45 -195
-186 -492 -338 -715 -157 -229 -252 -329 -297 -311 -18 7 -35 69 -35 131 0
109 57 377 118 555 42 120 62 170 159 386 l85 192 102 67 c74 50 141 108 251
219 145 146 272 290 311 350 l18 29 -30 -16 c-40 -21 -114 -79 -244 -192 -154
-134 -293 -243 -396 -312 -80 -54 -94 -68 -124 -124 -52 -100 -331 -402 -463
-502 -148 -113 -318 -191 -370 -171 -24 9 -30 79 -14 159 21 101 67 213 143
350 121 216 416 719 452 768 38 53 83 80 215 128 102 38 169 73 482 259 l250
148 95 6 c139 10 219 23 367 61 146 38 212 65 299 120 156 98 344 339 344 442
0 32 -2 30 -102 -71 -106 -105 -247 -208 -378 -273 -188 -94 -473 -136 -1105
-162 -316 -14 -442 5 -516 76 -36 34 -80 113 -93 165 -7 32 -64 10 699 263
362 120 649 209 810 251 286 74 357 104 503 213 123 93 280 231 372 327 l75
79 105 -48 c58 -27 189 -92 292 -144z m7770 -523 c26 -135 77 -428 113 -651
l67 -406 -31 -74 c-52 -126 -133 -201 -267 -251 -49 -18 -82 -22 -194 -22 -93
-1 -150 4 -185 14 -83 25 -458 20 -665 -8 -142 -20 -200 -22 -415 -20 l-249 3
-53 225 c-119 508 -136 613 -154 995 -13 267 -8 359 19 351 48 -14 341 -66
437 -77 147 -17 590 -18 725 -1 265 34 682 121 748 156 53 30 53 28 104 -234z
m-5716 -438 c11 -5 22 -11 26 -11 48 -8 70 -16 84 -32 9 -10 20 -16 25 -13 5
2 54 -18 109 -45 55 -28 103 -50 105 -50 13 1 65 -27 65 -35 0 -4 6 -6 13 -3
7 3 21 -1 31 -9 17 -12 21 -11 32 3 13 18 9 19 106 -28 10 -5 25 -9 33 -9 9 0
18 -7 21 -15 4 -8 14 -15 23 -15 9 0 138 -70 286 -156 541 -313 682 -392 772
-438 256 -128 596 -236 744 -236 27 0 49 -3 49 -6 0 -4 -18 -59 -39 -123 -75
-222 -100 -398 -130 -896 -26 -424 -31 -485 -39 -485 -26 0 -228 56 -327 90
-207 72 -339 150 -530 315 -182 158 -363 323 -590 540 -255 245 -456 425 -838
755 -179 155 -233 206 -222 213 17 9 20 43 5 52 -5 3 -10 15 -10 26 0 16 5 19
23 14 l22 -6 -22 19 c-12 11 -20 22 -17 25 3 3 -8 14 -25 26 l-30 21 16 53 c9
28 17 64 18 80 1 15 2 39 3 53 2 20 5 24 15 16 15 -13 43 -10 58 5 8 8 2 16
-19 29 -30 17 -42 39 -42 78 0 12 5 16 16 12 10 -4 13 -2 7 7 -25 38 -4 113
34 128 15 6 23 17 23 33 0 13 6 26 13 29 18 7 82 1 103 -11z m-531 -633 c545
-452 1014 -864 1330 -1170 326 -314 648 -597 783 -686 168 -111 386 -194 672
-258 91 -20 172 -40 181 -43 18 -7 -64 -83 -360 -331 -332 -278 -493 -391
-556 -391 -93 1 -283 170 -537 476 -235 284 -408 531 -806 1154 -210 330 -196
292 61 -160 258 -453 436 -709 766 -1100 196 -232 356 -374 459 -407 100 -32
163 1 442 230 165 136 313 265 494 431 l96 89 143 -28 c78 -15 148 -31 155
-35 10 -5 3 -14 -22 -33 -120 -92 -421 -369 -893 -824 -335 -323 -420 -388
-482 -368 -37 11 -135 118 -518 560 -66 77 -138 156 -159 175 l-38 35 39 -55
c106 -151 421 -544 500 -626 138 -141 179 -157 273 -110 79 40 139 93 541 481
376 362 607 579 744 699 l68 59 237 -41 c476 -84 633 -101 962 -108 l254 -6
23 -156 c41 -288 110 -607 194 -897 86 -297 253 -717 369 -928 33 -59 60 -116
60 -127 0 -38 -64 -198 -118 -295 -121 -219 -209 -317 -443 -496 -212 -161
-458 -294 -651 -353 -108 -33 -536 -122 -793 -165 -203 -35 -373 -51 -540 -52
-147 -1 -154 -2 -90 -11 94 -13 448 -3 610 17 454 55 805 117 935 164 107 39
327 154 441 231 134 89 313 236 400 328 113 118 250 360 285 505 l17 68 39
-53 c53 -74 133 -239 154 -323 30 -117 26 -347 -11 -580 l-29 -190 -81 -67
c-44 -37 -150 -131 -235 -209 -147 -134 -329 -278 -505 -401 -308 -215 -822
-502 -1392 -776 -510 -247 -711 -332 -927 -392 -128 -35 -141 -36 -221 -11
l-60 18 -47 94 c-56 111 -116 304 -239 759 -274 1014 -413 1402 -777 2165
-244 513 -355 723 -513 973 -72 114 -77 126 -61 138 15 11 16 16 3 46 -59 147
-310 1030 -370 1303 -11 50 -27 155 -35 235 -27 249 -31 256 -41 80 -18 -304
-14 -348 48 -590 70 -272 152 -553 216 -743 28 -82 46 -147 42 -145 -5 2 -65
86 -133 188 -68 102 -188 273 -266 381 -248 345 -332 488 -366 622 -46 177
-74 760 -83 1682 l-6 669 74 -66 c41 -37 173 -149 294 -249z m6420 -416 c-15
-65 -36 -152 -46 -193 -70 -267 -103 -386 -110 -394 -5 -6 -9 -20 -9 -32 0
-28 -90 -301 -136 -412 -57 -140 -151 -314 -194 -361 -22 -24 -40 -40 -40 -36
0 5 -11 -2 -25 -15 -14 -13 -32 -25 -40 -26 -8 -1 -27 -12 -42 -24 l-28 -22
-6 209 c-8 256 -17 314 -124 838 -47 230 -85 420 -85 422 0 9 154 0 205 -12
90 -22 301 -19 394 5 101 26 191 72 253 130 29 26 55 47 57 45 2 -2 -9 -57
-24 -122z m-987 -78 c2 -16 23 -154 47 -305 97 -608 108 -699 113 -1007 4
-275 4 -281 -16 -292 -28 -15 -276 -75 -397 -96 -55 -10 -152 -19 -215 -20
-63 -1 -123 -6 -133 -10 -36 -15 -565 2 -727 24 -225 31 -1066 184 -1079 196
-2 2 1 18 7 34 6 17 7 31 3 31 -5 0 -9 32 -10 71 -1 46 2 68 9 64 5 -3 10 -2
10 4 0 5 -4 13 -10 16 -12 8 -13 48 -1 60 13 15 21 85 10 85 -5 0 -7 54 -4
138 7 175 14 244 26 237 5 -4 9 1 9 10 0 9 -5 13 -10 10 -12 -8 -9 35 21 310
11 99 31 230 45 290 14 61 28 125 31 144 l6 34 141 -7 c78 -4 150 -7 161 -6
11 0 124 -2 252 -6 216 -6 233 -8 238 -25 8 -26 36 -24 42 2 6 22 9 22 141 15
75 -3 138 -8 140 -11 6 -6 -146 -577 -156 -586 -4 -4 -74 -9 -157 -13 -275
-12 -370 -17 -413 -22 l-43 -5 256 -165 c148 -97 255 -172 255 -181 0 -8 -34
-141 -75 -295 -42 -154 -74 -282 -72 -284 2 -2 110 82 240 187 l236 191 89
-56 c49 -30 165 -105 257 -166 92 -61 169 -109 171 -108 4 4 -49 147 -145 393
-39 99 -67 182 -63 186 4 3 112 90 240 193 127 103 232 189 232 190 0 3 -57 0
-290 -13 -80 -4 -187 -7 -238 -7 l-94 1 -85 220 c-46 121 -88 231 -93 245 -4
14 -16 43 -25 64 l-17 39 270 -6 c268 -6 403 0 592 28 52 7 136 12 185 12 l90
-2 3 -30z m2981 -230 c142 -34 258 -123 348 -266 21 -33 57 -89 80 -123 92
-134 155 -285 232 -559 84 -296 97 -493 61 -922 -12 -149 -20 -298 -17 -333 7
-66 30 -128 77 -202 15 -25 38 -79 49 -120 49 -179 116 -338 301 -720 220
-455 274 -606 314 -873 21 -141 20 -214 -4 -314 -71 -297 -180 -287 -441 39
-43 53 -107 142 -143 196 -163 248 -427 766 -439 862 -4 32 -13 52 -32 68 -24
21 -206 414 -297 642 -39 99 -128 271 -137 266 -15 -10 10 -199 43 -328 42
-164 78 -263 207 -563 l98 -230 -15 -155 c-29 -306 -86 -754 -115 -900 -17
-85 -68 -256 -94 -315 -43 -98 -144 -185 -213 -185 -47 0 -121 57 -173 134
-135 198 -150 419 -74 1041 108 871 119 1009 90 1064 -8 16 -42 53 -76 83
l-63 55 55 16 c78 23 138 65 205 143 61 72 573 713 704 883 84 108 135 204
146 270 6 40 6 43 -12 33 -24 -13 -264 -258 -410 -418 -60 -67 -190 -225 -289
-350 -266 -340 -312 -394 -359 -415 -73 -33 -126 -20 -177 44 -19 25 -21 37
-17 100 4 57 18 104 66 230 34 86 89 226 121 310 81 206 141 407 148 493 5 67
4 73 -16 84 -13 6 -29 9 -37 6 -17 -7 -18 34 -4 172 15 139 135 592 195 736
18 43 5 47 -25 9 -58 -73 -213 -454 -242 -593 -24 -114 -30 -381 -11 -444 10
-33 10 -49 -4 -95 -21 -76 -114 -317 -206 -539 -42 -101 -86 -214 -98 -252
-11 -39 -22 -70 -24 -70 -6 0 -184 368 -242 500 -126 285 -133 307 -162 514
l-28 191 23 305 c13 168 26 319 29 337 16 90 389 326 652 413 184 61 325 75
452 45z m-1888 -148 c9 -7 29 -39 44 -72 16 -33 36 -65 44 -72 9 -7 12 -13 6
-13 -5 0 -4 -4 3 -9 12 -7 11 -14 -2 -40 -9 -17 -23 -31 -31 -31 -8 0 -15 -6
-15 -14 0 -13 -20 -41 -62 -87 -10 -10 -18 -23 -18 -28 0 -6 -4 -12 -9 -15 -8
-6 -4 354 4 382 5 15 15 15 36 -1z m-240 -685 c-47 -389 -129 -729 -224 -932
-73 -155 -77 -186 -128 -899 -13 -189 -7 -782 12 -1049 13 -190 13 -193 -8
-213 l-20 -21 -44 23 c-179 90 -280 225 -443 590 -212 474 -377 1038 -480
1641 -8 43 -8 43 109 53 101 9 232 32 374 66 68 16 128 29 133 29 11 0 4 -219
-9 -302 -3 -22 -1 -38 4 -38 24 0 133 290 133 352 0 35 18 55 92 99 96 58 217
175 279 269 59 89 143 253 190 368 18 46 35 78 37 72 3 -7 -1 -55 -7 -108z
m983 -642 c59 -273 236 -806 313 -940 55 -95 223 -289 336 -386 64 -56 67 -60
67 -103 0 -56 -25 -279 -91 -806 -27 -220 -54 -443 -59 -495 -10 -94 -11 -96
-77 -195 -83 -124 -158 -205 -245 -261 -76 -50 -105 -54 -146 -19 -64 54 -94
178 -95 395 -1 183 9 238 171 975 22 99 43 200 47 225 4 25 13 55 21 67 16 26
18 55 4 69 -5 5 -10 43 -12 84 l-3 75 -31 -60 c-17 -33 -43 -92 -57 -131 -27
-75 -147 -252 -371 -548 -161 -214 -262 -316 -339 -345 -104 -38 -175 -22
-203 46 -31 74 -3 263 61 413 39 91 174 362 259 520 35 63 100 185 146 271
l83 156 91 -62 c90 -60 226 -125 264 -125 11 0 25 7 32 15 25 30 3 59 -97 125
-133 88 -245 196 -283 274 -29 57 -30 65 -20 116 6 30 33 128 60 218 44 144
107 409 126 530 4 24 10 40 14 35 4 -4 19 -64 34 -133z m-7251 -627 c166 -233
338 -491 329 -496 -4 -3 -34 15 -67 39 -91 67 -235 157 -241 151 -3 -3 29 -34
72 -69 153 -123 379 -335 412 -383 72 -108 211 -348 206 -356 -2 -4 -46 17
-97 48 -51 31 -186 107 -302 170 -115 63 -215 120 -222 126 -14 15 -95 272
-127 407 -36 149 -105 523 -99 533 7 12 4 15 136 -170z m318 -938 c155 -97
459 -306 476 -327 19 -23 312 -637 408 -854 229 -515 371 -924 545 -1569 34
-126 83 -308 109 -402 26 -95 46 -175 43 -178 -7 -7 -312 151 -344 178 -22 19
-59 123 -233 657 -304 934 -449 1340 -698 1952 -77 191 -142 347 -143 345 -1
-1 68 -213 155 -472 86 -258 199 -607 250 -775 51 -168 189 -597 307 -953 118
-357 214 -653 214 -658 0 -14 -56 21 -170 105 -112 84 -216 180 -255 236 -15
22 -38 43 -51 46 -28 7 -21 -19 -94 324 -172 801 -243 1048 -569 1984 -94 269
-171 491 -171 493 0 5 19 -6 221 -132z m5597 -951 l32 5 0 -122 c0 -137 -9
-184 -43 -215 l-23 -22 -12 85 c-7 47 -26 125 -43 173 -17 48 -33 95 -36 104
-5 15 -1 16 44 2 26 -8 63 -13 81 -10z m-210 -1275 c9 -4 312 -1209 312 -1244
-1 -67 -131 -233 -395 -504 -295 -302 -625 -567 -948 -761 -50 -29 -92 -49
-97 -44 -4 5 -51 84 -104 175 -54 92 -108 177 -122 190 -20 19 -39 24 -92 27
-62 3 -83 -2 -282 -71 -118 -42 -307 -107 -418 -146 -257 -90 -434 -134 -680
-171 -107 -17 -208 -37 -225 -45 -17 -8 -31 -14 -33 -12 -8 8 -104 265 -104
279 0 9 -9 32 -20 50 -19 33 -92 222 -170 440 l-38 106 71 -5 c190 -14 577
137 1388 542 834 417 1302 720 1759 1138 l125 115 31 -28 c18 -15 36 -29 42
-31z m317 -119 c134 -43 395 -109 645 -164 376 -83 453 -113 710 -268 330
-199 520 -292 779 -382 255 -89 622 -168 842 -183 54 -3 99 -9 99 -12 0 -3
-96 -25 -212 -49 -230 -46 -318 -77 -318 -111 0 -27 27 -40 97 -47 92 -9 831
119 1131 197 519 134 658 162 812 163 138 0 210 -14 310 -61 110 -53 185 -134
256 -277 29 -61 54 -116 54 -122 0 -7 -29 -17 -67 -24 -110 -18 -172 -39 -275
-92 -177 -90 -386 -267 -476 -403 -17 -25 -71 -84 -121 -131 -142 -134 -186
-245 -185 -464 2 -239 55 -417 247 -820 95 -201 132 -288 135 -324 6 -59 -2
-66 -83 -66 -53 0 -172 33 -269 75 -42 18 6 -35 86 -96 87 -65 142 -94 216
-113 l45 -11 34 -100 c53 -158 97 -324 89 -332 -5 -5 -13 1 -20 11 -37 63
-136 186 -217 270 -280 294 -650 544 -1496 1014 -874 486 -1680 894 -2007
1016 -167 63 -339 105 -471 117 -66 5 -134 12 -151 15 l-31 4 -6 118 c-7 137
-33 312 -52 359 -12 28 -12 39 0 74 29 82 21 131 -120 698 -74 298 -135 547
-135 553 0 6 6 8 13 5 6 -2 57 -19 112 -37z m-4919 -700 c54 -41 149 -106 209
-144 212 -133 235 -148 235 -156 0 -5 20 -18 44 -29 24 -12 53 -29 65 -39 11
-9 37 -28 56 -42 20 -14 54 -40 77 -57 22 -18 47 -33 55 -33 8 0 28 -13 45
-30 16 -16 33 -30 38 -30 5 0 21 -12 35 -27 14 -16 35 -38 47 -50 12 -12 18
-28 15 -37 -4 -10 1 -20 14 -27 14 -7 19 -17 16 -30 -3 -10 0 -17 7 -16 6 1
11 -12 11 -34 0 -23 8 -45 20 -59 10 -11 27 -46 36 -76 16 -52 16 -55 -2 -65
-22 -11 -23 -18 -7 -56 6 -15 12 -35 13 -44 1 -9 5 -28 9 -43 4 -18 2 -26 -7
-26 -13 0 -355 246 -707 508 -208 155 -253 202 -317 332 -54 111 -102 243
-127 348 -14 60 -14 63 3 50 10 -7 62 -47 117 -88z m4990 -880 c8 -169 -2
-225 -42 -240 -14 -6 -71 -13 -127 -17 l-102 -7 74 -34 c57 -26 93 -35 151
-39 74 -5 77 -5 106 25 20 20 35 27 45 22 8 -4 88 -22 179 -40 204 -39 431
-113 646 -211 706 -324 2035 -1040 2597 -1400 78 -51 149 -99 158 -108 29 -28
120 -251 158 -386 69 -246 101 -459 101 -685 0 -190 -16 -304 -60 -440 -60
-183 -144 -313 -316 -485 -132 -131 -206 -191 -523 -418 -202 -144 -279 -206
-370 -297 -64 -64 -121 -122 -128 -130 -29 -35 -79 -60 -368 -183 -146 -61
-205 -81 -285 -96 -149 -27 -125 -32 -376 83 -757 345 -1620 811 -2542 1373
l-123 75 19 22 c10 11 84 93 163 181 361 402 742 883 804 1016 45 97 31 132
-98 250 -51 46 -248 238 -439 427 l-346 343 41 37 c409 361 484 441 725 776
34 48 66 84 71 81 18 -10 21 13 5 30 -15 15 -18 14 -41 -7 -14 -13 -64 -72
-111 -133 -47 -60 -119 -148 -159 -195 -92 -107 -524 -562 -539 -567 -9 -3
-259 258 -339 354 l-27 33 32 17 c72 41 336 217 429 288 275 207 578 491 806
753 l130 149 7 -36 c4 -20 10 -101 14 -181z m5455 52 c325 -94 666 -296 1097
-650 664 -543 1228 -1192 1593 -1831 186 -327 346 -714 415 -1006 35 -150 45
-401 20 -526 -44 -221 -151 -342 -363 -412 -190 -63 -371 -68 -624 -17 -213
44 -240 56 -399 175 -357 270 -767 734 -1222 1385 -299 429 -566 839 -696
1071 -239 427 -384 775 -442 1058 -45 223 -47 370 -8 630 l11 73 56 26 c111
51 174 62 321 58 113 -3 152 -9 241 -34z m-739 -229 c-34 -150 -36 -413 -4
-583 42 -230 135 -491 280 -785 171 -346 286 -539 610 -1020 458 -679 758
-1068 1104 -1428 57 -59 97 -107 89 -107 -8 0 -75 32 -150 72 -355 187 -449
265 -680 567 -323 421 -864 1148 -947 1271 -236 351 -361 577 -472 856 -69
173 -93 254 -123 414 -22 122 -37 394 -25 473 9 56 51 121 140 215 64 67 178
162 195 162 4 0 -4 -48 -17 -107z m-518 -420 c-7 -48 19 -175 45 -219 12 -20
29 -84 40 -156 27 -163 50 -241 128 -438 88 -224 180 -402 334 -646 150 -240
234 -357 605 -851 150 -200 271 -363 269 -363 -6 0 -596 333 -790 446 l-159
92 -21 99 c-32 145 -51 205 -107 337 -34 78 -48 123 -42 131 41 55 48 73 52
125 6 84 -15 146 -145 415 -164 341 -217 486 -248 680 -22 136 -17 247 16 353
14 44 31 41 23 -5z m-5914 -144 c100 -160 159 -235 195 -249 13 -5 33 -29 45
-55 52 -108 243 -326 650 -740 157 -159 292 -294 300 -299 32 -18 157 -153
173 -186 10 -19 21 -42 26 -50 5 -8 16 -32 24 -52 l16 -37 -106 -137 c-136
-175 -320 -396 -458 -549 -188 -209 -420 -450 -431 -449 -12 1 -226 154 -454
323 -310 231 -638 585 -1010 1092 -173 236 -297 422 -423 634 -56 94 -118 194
-138 223 -41 59 -125 249 -115 260 4 3 15 1 25 -5 10 -7 23 -8 32 -3 7 5 33 6
57 3 36 -5 47 -2 67 17 18 17 28 20 38 12 8 -7 18 -7 27 -2 14 9 13 11 -9 14
-5 0 -13 4 -17 9 -4 4 23 7 60 7 50 0 75 -5 94 -19 32 -22 62 -23 62 -3 0 11
-3 12 -14 3 -10 -8 -16 -9 -21 -1 -5 9 32 30 55 30 5 0 10 4 12 8 2 4 63 21
136 38 130 30 137 30 133 -5 -2 -7 2 -10 8 -7 5 4 22 -5 37 -19 32 -30 49 -31
101 -7 l39 17 -23 40 c-12 22 -23 45 -23 50 0 18 648 244 700 244 35 1 37 -1
130 -150z m5813 -1629 c101 -95 227 -242 276 -324 98 -164 129 -311 177 -854
33 -378 3 -431 -436 -772 -423 -327 -725 -576 -887 -732 -89 -86 -106 -97
-117 -79 -3 5 -93 48 -200 96 -238 108 -240 110 -132 189 98 73 294 213 461
331 206 145 316 236 450 370 218 219 327 415 385 693 27 128 36 368 21 532
-17 169 -70 431 -120 590 -12 36 -21 69 -21 73 0 14 50 -26 143 -113z m635
-579 c64 -37 263 -150 442 -251 378 -213 578 -334 637 -385 47 -40 108 -153
266 -495 245 -530 378 -887 576 -1547 101 -336 115 -399 115 -549 l1 -131
-154 -306 c-192 -382 -255 -489 -337 -577 -179 -189 -373 -168 -674 74 -250
200 -473 405 -945 867 l-280 274 -120 63 c-66 35 -123 67 -127 71 -4 3 39 43
95 87 188 150 391 330 450 400 82 97 192 265 218 333 52 139 63 293 29 425
-26 101 -98 239 -187 358 -91 120 -153 176 -204 184 l-38 6 24 32 c76 100 102
215 116 520 13 261 7 401 -20 529 -10 48 -14 87 -9 87 5 0 62 -31 126 -69z
m-200 -1270 c86 -103 183 -250 226 -341 49 -104 63 -195 49 -311 -25 -196
-145 -373 -498 -739 -77 -80 -155 -162 -172 -183 l-30 -38 -89 44 c-128 64
-332 153 -454 198 -99 36 -196 67 -550 169 -80 24 -146 44 -148 45 -1 1 28 10
65 19 132 34 198 73 328 196 211 199 402 369 755 672 190 162 365 313 390 336
38 35 46 39 55 25 6 -8 38 -50 73 -92z m-1614 -938 c113 -41 126 -48 110 -60
-61 -45 -321 -101 -384 -83 -56 16 -86 12 -103 -12 -14 -22 -19 -23 -183 -23
-133 0 -185 4 -243 19 l-73 19 73 28 c41 16 166 73 279 127 l205 99 95 -34
c52 -19 153 -55 224 -80z"/>
<path d="M16320 36820 c0 -11 7 -20 15 -20 8 0 15 6 15 14 0 8 -7 16 -15 20
-10 4 -15 -1 -15 -14z"/>
<path d="M16380 36751 c0 -10 19 -25 25 -20 1 2 -3 10 -11 17 -8 7 -14 8 -14
3z"/>
<path d="M17290 36190 c0 -5 5 -10 10 -10 6 0 10 5 10 10 0 6 -4 10 -10 10 -5
0 -10 -4 -10 -10z"/>
<path d="M17525 35970 c-4 -6 1 -18 11 -25 36 -27 48 -11 15 19 -13 12 -21 14
-26 6z"/>
<path d="M17646 35915 c4 -8 11 -15 16 -15 6 0 5 6 -2 15 -7 8 -14 15 -16 15
-2 0 -1 -7 2 -15z"/>
<path d="M17560 35890 c0 -5 7 -10 15 -10 8 0 15 5 15 10 0 6 -7 10 -15 10 -8
0 -15 -4 -15 -10z"/>
<path d="M17602 35883 c-13 -23 10 -74 23 -53 5 8 2 18 -8 25 -12 9 -13 15 -5
23 6 6 9 14 6 18 -4 3 -11 -3 -16 -13z"/>
<path d="M17637 35835 c-5 -11 0 -15 16 -15 12 0 18 4 12 8 -5 4 -13 11 -16
15 -4 4 -9 1 -12 -8z"/>
<path d="M17630 35805 c0 -13 37 -23 51 -13 11 8 11 9 -3 4 -10 -3 -20 -1 -23
4 -6 10 -25 14 -25 5z"/>
<path d="M18370 35386 c0 -2 8 -10 18 -17 15 -13 16 -12 3 4 -13 16 -21 21
-21 13z"/>
<path d="M18986 34835 c-3 -8 -1 -15 4 -15 6 0 10 7 10 15 0 8 -2 15 -4 15 -2
0 -6 -7 -10 -15z"/>
<path d="M13531 33024 c-21 -15 -23 -22 -18 -70 5 -45 2 -57 -20 -86 -34 -45
-105 -189 -133 -268 -13 -36 -27 -69 -31 -75 -10 -14 8 -130 26 -165 20 -39
69 -64 108 -56 78 16 125 85 182 270 l37 119 39 -39 c32 -33 42 -51 54 -109
19 -91 19 -125 0 -125 -21 0 -375 -178 -375 -189 0 -5 15 -6 33 -1 31 7 306
82 356 98 19 5 30 2 48 -15 42 -43 93 -22 112 44 6 20 2 68 -10 143 -30 179
-32 184 -134 285 -64 64 -101 111 -128 162 -21 40 -46 77 -57 83 -28 15 -62
12 -89 -6z"/>
<path d="M15374 32758 c-8 -12 22 -38 43 -38 34 0 97 -46 174 -128 128 -137
184 -243 220 -416 23 -109 35 -305 24 -400 l-7 -69 -28 45 c-32 50 -74 89
-134 121 -39 21 -52 22 -311 22 l-270 0 -57 27 c-32 15 -58 25 -58 23 0 -14
115 -79 170 -96 54 -18 101 -23 275 -28 257 -7 270 -12 351 -131 69 -102 96
-105 114 -11 15 81 12 345 -5 447 -30 175 -73 286 -157 399 -68 92 -177 198
-230 223 -52 24 -103 29 -114 10z"/>
<path d="M13193 32603 c-16 -16 -32 -37 -38 -47 -9 -15 -16 -16 -55 -7 -25 6
-63 11 -85 11 -58 0 -210 -32 -193 -41 13 -7 237 -30 328 -33 42 -1 46 1 65
37 17 31 24 37 43 32 57 -14 89 35 37 55 -62 24 -74 23 -102 -7z"/>
<path d="M15304 31774 c-11 -45 4 -214 29 -324 32 -137 75 -246 140 -355 84
-142 146 -197 282 -249 18 -7 16 -10 -15 -21 -75 -27 -189 -40 -350 -40 l-165
0 -95 38 c-113 45 -363 178 -475 252 -44 29 -110 81 -147 115 -103 94 -81 49
30 -60 73 -73 140 -125 272 -212 300 -198 364 -223 565 -216 l132 4 1 -82 c2
-132 42 -265 133 -446 17 -33 29 -62 27 -63 -9 -9 -283 -75 -356 -85 -121 -18
-782 -8 -917 14 -120 19 -217 47 -306 87 -78 36 -99 65 -229 311 -86 164 -109
189 -138 152 -12 -16 -13 -51 -8 -199 l7 -180 -67 65 c-133 131 -307 373 -390
543 -37 75 -44 85 -38 52 31 -176 194 -478 328 -609 110 -107 182 -139 219
-98 16 17 16 33 4 191 -15 201 -19 202 85 -2 75 -147 133 -223 176 -233 15 -3
68 -25 117 -49 50 -24 117 -53 150 -64 153 -50 433 -86 780 -98 209 -7 262 1
484 72 76 25 149 45 163 45 61 0 62 43 4 158 -72 144 -134 311 -151 406 -22
130 -29 119 83 144 112 26 242 84 298 134 21 19 72 59 112 87 73 53 94 80 106
136 6 29 6 29 -12 -5 -20 -41 -97 -89 -115 -71 -13 13 -30 15 -22 1 16 -26
-142 -76 -213 -66 -113 15 -193 81 -298 241 -101 155 -194 421 -194 554 0 54
-15 68 -26 25z"/>
<path d="M12312 31048 c-17 -17 -15 -35 11 -69 20 -28 22 -42 22 -135 -1 -57
2 -104 6 -104 4 0 24 25 44 55 49 71 58 140 26 203 -29 57 -79 80 -109 50z"/>
<path d="M14117 29813 c-3 -5 -15 -48 -27 -98 -25 -99 -34 -189 -19 -180 5 4
9 15 9 26 0 10 4 19 9 19 5 0 7 9 4 20 -3 11 0 26 6 33 6 8 8 17 5 20 -4 3 -3
14 1 24 4 10 9 42 11 71 2 29 6 57 9 62 3 6 4 10 1 10 -3 0 -7 -3 -9 -7z"/>
<path d="M13524 29767 c-3 -8 -1 -32 5 -54 42 -150 -55 -348 -244 -498 -89
-71 -260 -187 -302 -204 -48 -20 -40 -33 9 -15 116 41 363 191 444 270 65 63
129 172 150 254 28 111 6 241 -44 258 -7 2 -15 -3 -18 -11z"/>
<path d="M14061 29504 c0 -11 3 -14 6 -6 3 7 2 16 -1 19 -3 4 -6 -2 -5 -13z"/>
<path d="M11925 28830 c3 -5 11 -10 16 -10 6 0 7 5 4 10 -3 6 -11 10 -16 10
-6 0 -7 -4 -4 -10z"/>
<path d="M17582 29048 c-10 -12 -52 -112 -52 -124 0 -3 31 12 69 32 75 40 75
37 15 87 -17 14 -23 15 -32 5z"/>
<path d="M17960 29555 c-19 -30 -38 -55 -42 -55 -18 0 -6 -17 18 -29 22 -10
28 -9 40 6 7 10 14 29 14 42 0 14 7 32 16 42 16 17 13 50 -3 49 -4 -1 -24 -25
-43 -55z"/>
<path d="M16712 28823 c7 -18 18 -33 25 -33 9 0 11 -9 7 -30 -5 -23 -3 -30 10
-30 18 0 22 15 6 25 -6 4 -8 11 -4 16 3 6 -1 18 -10 27 -10 9 -23 26 -31 37
-13 18 -13 17 -3 -12z"/>
<path d="M16777 28673 c-15 -14 -6 -31 12 -26 12 3 17 11 14 19 -6 15 -16 18
-26 7z"/>
<path d="M16930 27389 c0 -5 5 -7 10 -4 6 3 10 8 10 11 0 2 -4 4 -10 4 -5 0
-10 -5 -10 -11z"/>
<path d="M17645 27250 c3 -5 8 -10 11 -10 2 0 4 5 4 10 0 6 -5 10 -11 10 -5 0
-7 -4 -4 -10z"/>
<path d="M17690 27080 c0 -5 5 -10 10 -10 6 0 10 5 10 10 0 6 -4 10 -10 10 -5
0 -10 -4 -10 -10z"/>
<path d="M17970 27210 c0 -5 5 -10 10 -10 6 0 10 5 10 10 0 6 -4 10 -10 10 -5
0 -10 -4 -10 -10z"/>
<path d="M18056 27125 c4 -8 12 -15 20 -15 8 0 11 6 8 15 -4 8 -12 15 -20 15
-8 0 -11 -6 -8 -15z"/>
<path d="M18218 26898 c3 -13 15 -32 27 -43 12 -11 30 -32 40 -47 14 -23 19
-25 36 -15 19 12 19 12 0 21 -10 4 -24 18 -31 30 -7 11 -27 33 -45 49 -32 27
-33 27 -27 5z"/>
<path d="M18940 25130 c11 -16 26 -33 33 -36 7 -4 4 2 -5 13 -10 11 -18 24
-18 30 0 6 -7 14 -16 17 -11 4 -10 -1 6 -24z"/>
<path d="M19005 25040 c3 -5 13 -10 21 -10 8 0 12 5 9 10 -3 6 -13 10 -21 10
-8 0 -12 -4 -9 -10z"/>
<path d="M15840 25713 c-368 -34 -489 -61 -653 -146 -119 -61 -159 -123 -213
-334 -42 -165 -57 -349 -51 -618 6 -273 17 -372 58 -534 26 -105 32 -119 71
-159 50 -51 102 -80 178 -100 78 -20 474 -28 653 -13 164 14 888 104 1022 127
188 33 315 97 359 182 28 54 65 314 96 667 13 149 30 723 22 744 -10 25 -54
62 -97 82 -88 39 -384 81 -709 99 -162 9 -651 11 -736 3z m376 -73 c12 0 12
-4 4 -20 -12 -23 -26 -25 -44 -7 -16 16 -8 40 11 33 8 -3 21 -6 29 -6z m779
-26 c134 -19 241 -42 277 -60 45 -23 79 -66 73 -91 -3 -13 -1 -23 5 -23 7 0 8
-6 2 -16 -5 -8 -5 -41 -1 -72 5 -31 6 -70 4 -87 -3 -16 -7 -84 -10 -150 -6
-144 -13 -221 -25 -295 -5 -30 -16 -98 -25 -150 -9 -52 -23 -123 -31 -157 -15
-60 -15 -64 4 -87 16 -22 18 -33 10 -87 -17 -128 -20 -133 -103 -174 -41 -21
-82 -46 -92 -57 -13 -14 -25 -18 -49 -14 -18 4 -46 0 -67 -9 -20 -8 -47 -15
-61 -15 -26 0 -36 -16 -36 -60 0 -39 -16 -46 -135 -59 -55 -7 -170 -20 -255
-31 -85 -10 -183 -22 -217 -25 l-63 -7 0 30 0 30 -124 -1 -124 0 -7 -42 -6
-42 -76 -7 c-136 -11 -503 -6 -584 8 -115 21 -163 53 -140 94 5 8 5 23 1 31
-8 15 -40 160 -42 191 0 8 3 23 7 33 5 13 4 16 -9 11 -16 -6 -23 11 -7 20 4 3
6 18 4 33 -5 25 -4 26 8 11 8 -10 34 -31 59 -47 77 -52 98 -22 131 190 l22
147 56 11 c31 6 102 14 157 18 l101 6 11 -34 c6 -19 24 -79 41 -134 41 -143
56 -175 80 -175 29 0 51 38 51 88 0 72 -48 344 -90 510 -48 194 -136 416 -172
438 -19 12 -100 4 -128 -13 -31 -18 -110 -121 -150 -194 -16 -30 -42 -95 -59
-145 -33 -98 -96 -374 -107 -467 -11 -91 -27 -53 -32 70 -8 257 -9 404 -1 409
5 3 4 14 -1 25 -6 10 -8 19 -4 19 3 0 -1 11 -10 25 -15 23 -14 29 7 26 4 0 7
8 7 19 0 15 -9 22 -30 27 -38 7 -39 27 -5 158 40 152 53 169 136 181 24 3 51
8 59 12 8 3 26 6 40 7 14 1 32 5 40 8 48 19 140 33 150 23 8 -8 13 -8 18 1 8
12 121 34 135 26 4 -2 29 2 55 11 26 8 83 18 127 21 108 8 128 11 145 18 8 4
36 5 63 4 35 -3 47 0 47 10 0 8 8 13 18 11 9 -1 23 1 30 6 7 4 19 3 26 -3 14
-12 97 -14 181 -5 28 3 77 7 110 10 33 2 65 6 72 8 7 3 15 1 18 -4 4 -6 14 -6
27 1 11 6 29 9 39 6 10 -3 21 -1 24 3 3 5 31 7 63 4 31 -3 68 -1 82 5 28 10
93 7 255 -15z m-1471 -544 c4 -47 23 -144 42 -216 18 -73 34 -133 34 -136 0
-2 -30 -1 -67 4 -38 4 -96 5 -131 2 l-63 -6 6 28 c41 178 108 402 138 459 9
18 11 17 22 -15 7 -19 15 -73 19 -120z m1763 -632 c-3 -7 -5 -2 -5 12 0 14 2
19 5 13 2 -7 2 -19 0 -25z m-2207 -249 c0 -6 -4 -7 -10 -4 -5 3 -10 11 -10 16
0 6 5 7 10 4 6 -3 10 -11 10 -16z"/>
<path d="M16290 25282 c-36 -38 -112 -132 -169 -211 -57 -78 -104 -141 -106
-139 -2 2 -19 80 -39 173 -28 133 -41 174 -57 188 -27 22 -44 22 -68 -2 -47
-47 -41 -138 28 -466 40 -185 51 -260 51 -330 0 -84 19 -197 39 -233 13 -24
67 90 91 193 23 100 25 158 5 238 l-14 58 40 36 c22 20 88 108 148 197 191
286 205 318 159 350 -12 9 -27 16 -33 16 -5 0 -39 -31 -75 -68z"/>
<path d="M16656 25298 c-47 -74 -77 -232 -102 -537 -10 -113 -20 -209 -23
-213 -3 -4 -64 -16 -134 -28 -140 -22 -182 -36 -211 -69 -20 -22 -20 -22 2
-43 28 -28 94 -33 280 -20 158 11 185 21 207 75 8 21 15 108 19 242 3 116 11
273 18 350 7 77 13 167 13 200 0 58 -1 60 -27 63 -19 2 -31 -3 -42 -20z"/>
<path d="M16921 25289 c-35 -4 -66 -11 -70 -14 -12 -12 29 -32 112 -55 45 -13
83 -24 84 -25 2 -1 -4 -33 -12 -71 -8 -38 -19 -161 -25 -274 -6 -113 -13 -251
-16 -307 l-6 -102 -41 5 c-51 5 -159 -16 -165 -34 -9 -27 119 -72 268 -93 97
-14 145 -18 152 -11 19 19 -1 62 -35 78 l-32 16 7 66 c4 37 12 200 18 362 5
162 13 305 16 316 4 16 16 23 44 28 67 10 90 52 46 81 -48 32 -225 49 -345 34z"/>
<path d="M17817 24699 c7 -7 15 -10 18 -7 3 3 -2 9 -12 12 -14 6 -15 5 -6 -5z"/>
<path d="M18020 23170 c0 -5 5 -10 11 -10 5 0 7 5 4 10 -3 6 -8 10 -11 10 -2
0 -4 -4 -4 -10z"/>
<path d="M18098 22963 c5 -21 7 -23 10 -9 2 10 0 22 -6 28 -6 6 -7 0 -4 -19z"/>
<path d="M12787 24113 c-4 -3 -7 -15 -7 -25 0 -26 24 -17 28 10 3 21 -8 29
-21 15z"/>
<path d="M12950 22880 c0 -5 7 -7 15 -4 8 4 15 8 15 10 0 2 -7 4 -15 4 -8 0
-15 -4 -15 -10z"/>
<path d="M12950 22848 c0 -9 5 -20 10 -23 13 -8 13 5 0 25 -8 13 -10 13 -10
-2z"/>
<path d="M11453 23720 c-148 -31 -259 -144 -234 -237 26 -96 108 -155 258
-189 209 -46 352 61 313 236 -10 46 -21 63 -63 102 -87 80 -176 108 -274 88z
m129 -155 c18 -15 37 -23 48 -20 26 8 42 -19 38 -67 -4 -56 -30 -71 -118 -65
-90 6 -176 40 -195 77 -15 28 -14 30 18 53 71 53 161 62 209 22z"/>
<path d="M9710 23510 c-9 -6 -10 -10 -3 -10 7 0 17 -19 23 -42 29 -117 73
-223 181 -440 161 -323 163 -321 23 32 -119 298 -190 464 -200 467 -5 1 -16
-2 -24 -7z"/>
<path d="M12015 22734 c-137 -62 -447 -193 -578 -244 -60 -23 -107 -44 -104
-46 2 -2 93 26 203 62 140 46 253 92 382 154 100 49 182 86 182 83 0 -3 7 0
15 7 16 13 20 30 8 30 -5 0 -53 -21 -108 -46z"/>
<path d="M9825 22270 c3 -5 8 -10 11 -10 2 0 4 5 4 10 0 6 -5 10 -11 10 -5 0
-7 -4 -4 -10z"/>
<path d="M9375 21380 c3 -5 8 -10 11 -10 2 0 4 5 4 10 0 6 -5 10 -11 10 -5 0
-7 -4 -4 -10z"/>
<path d="M7279 19898 c-98 -196 -166 -296 -282 -410 -139 -139 -342 -243 -517
-267 -105 -14 -312 6 -470 44 -25 6 -25 6 -5 -10 58 -49 284 -113 425 -122 85
-5 103 -3 175 22 44 14 129 52 190 83 91 47 126 73 208 151 143 137 232 276
310 481 44 115 45 121 30 127 -7 3 -33 -37 -64 -99z"/>
<path d="M14697 19725 c-24 -50 -20 -58 4 -12 11 22 19 41 17 43 -3 2 -12 -12
-21 -31z"/>
<path d="M14408 19257 c-162 -179 -330 -347 -347 -347 -6 0 -18 -11 -27 -25
-16 -24 -16 -27 1 -45 10 -11 30 -20 45 -20 36 0 107 47 156 103 45 51 339
496 332 503 -3 2 -75 -74 -160 -169z"/>
<path d="M9025 19390 c3 -5 11 -10 16 -10 6 0 7 5 4 10 -3 6 -11 10 -16 10 -6
0 -7 -4 -4 -10z"/>
<path d="M8775 18780 c-30 -48 -55 -255 -36 -302 13 -34 44 -37 65 -6 19 27
21 140 5 237 -12 69 -22 91 -34 71z"/>
<path d="M8787 18093 c-13 -22 -27 -130 -30 -222 -2 -89 0 -105 16 -115 12 -8
22 -8 35 0 15 10 17 28 17 130 -1 162 -16 244 -38 207z"/>
<path d="M11318 13223 c6 -2 18 -2 25 0 6 3 1 5 -13 5 -14 0 -19 -2 -12 -5z"/>
<path d="M18371 11151 c-48 -68 -105 -212 -178 -453 -59 -198 -74 -261 -65
-270 9 -9 24 15 66 103 91 191 178 382 193 424 27 77 53 189 47 207 -8 27 -40
22 -63 -11z"/>
<path d="M15631 10483 c7 -10 50 -58 94 -108 162 -180 676 -794 762 -909 91
-123 234 -361 317 -526 115 -231 181 -439 233 -730 14 -82 18 -155 18 -335 l0
-230 -38 -140 c-70 -259 -177 -512 -288 -686 -49 -76 -166 -199 -190 -199 -7
0 -10 -3 -6 -6 20 -20 162 115 234 221 125 186 267 510 324 739 33 131 37 401
10 586 -63 435 -181 736 -446 1140 -110 168 -139 206 -314 409 -410 476 -695
791 -714 791 -5 0 -3 -8 4 -17z"/>
<path d="M15300 10378 c0 -7 18 -46 39 -88 101 -194 232 -572 311 -895 94
-386 95 -392 95 -655 0 -218 -2 -244 -28 -363 -54 -250 -136 -453 -258 -635
-126 -189 -229 -301 -352 -386 -30 -20 -35 -26 -17 -21 47 14 132 67 229 145
50 41 218 238 281 330 97 143 170 325 217 539 34 160 44 473 19 634 -20 127
-118 503 -176 676 -109 328 -300 731 -346 731 -8 0 -14 -5 -14 -12z"/>
</g>
</svg>
