<?xml version="1.0" standalone="no"?>
<!DOCTYPE svg PUBLIC "-//W3C//DTD SVG 20010904//EN"
 "http://www.w3.org/TR/2001/REC-SVG-20010904/DTD/svg10.dtd">
<svg version="1.0" xmlns="http://www.w3.org/2000/svg"
 width="487.000000pt" height="407.000000pt" viewBox="0 0 487.000000 407.000000"
 preserveAspectRatio="xMidYMid meet">

<g transform="translate(0.000000,407.000000) scale(0.100000,-0.100000)"
fill="#000000" stroke="none">
<path d="M1640 3301 c0 -311 4 -522 9 -526 5 -3 30 -9 55 -14 l46 -8 0 533 0
534 -55 0 -55 0 0 -519z"/>
<path d="M2350 3563 l0 -257 27 -28 27 -28 28 27 28 27 0 258 0 258 -55 0 -55
0 0 -257z"/>
<path d="M3060 3715 l0 -105 39 0 c22 0 46 -3 55 -6 14 -5 16 8 16 105 l0 111
-55 0 -55 0 0 -105z"/>
<path d="M3060 2710 l0 -560 55 0 55 0 0 548 0 549 -39 11 c-78 24 -71 77 -71
-548z"/>
<path d="M2372 2747 c-22 -23 -22 -29 -22 -310 l0 -287 55 0 55 0 0 288 0 289
-23 21 c-29 28 -38 28 -65 -1z"/>
<path d="M1640 2285 l0 -135 55 0 55 0 0 129 0 129 -31 6 c-17 3 -42 6 -55 6
l-24 0 0 -135z"/>
<path d="M1020 1520 l0 -230 30 0 30 0 0 230 0 230 -30 0 -30 0 0 -230z"/>
<path d="M3330 1520 l0 -230 30 0 30 0 0 230 0 230 -30 0 -30 0 0 -230z"/>
<path d="M650 1514 c-41 -114 -76 -211 -78 -215 -2 -5 9 -9 25 -9 26 0 31 5
44 48 l15 47 97 3 98 3 21 -51 c17 -40 25 -50 44 -50 13 0 24 4 24 9 0 5 -33
100 -74 212 l-74 204 -33 3 -34 3 -75 -207z m148 36 c17 -47 33 -93 37 -102 6
-16 -1 -18 -74 -18 -45 0 -81 3 -81 8 0 22 74 212 81 205 4 -4 21 -46 37 -93z"/>
<path d="M3180 1505 l0 -215 25 0 25 0 0 215 0 215 -25 0 -25 0 0 -215z"/>
<path d="M1241 1618 c-58 -31 -86 -83 -85 -159 1 -104 63 -169 161 -169 30 0
67 7 83 15 28 15 70 60 70 76 0 20 -45 7 -78 -22 -31 -28 -41 -31 -80 -26 -53
6 -92 40 -95 83 l-2 29 138 3 137 3 0 27 c0 38 -39 112 -72 136 -43 31 -123
33 -177 4z m147 -45 c13 -8 27 -25 32 -39 21 -53 19 -54 -100 -54 -123 0 -129
4 -90 67 30 50 101 62 158 26z"/>
<path d="M1931 1618 c-58 -30 -86 -82 -85 -159 1 -104 63 -169 161 -169 30 0
67 7 83 15 28 15 70 60 70 76 0 19 -46 7 -73 -18 -23 -23 -37 -28 -78 -28 -45
0 -54 4 -80 33 -18 20 -29 42 -27 55 3 21 8 22 142 25 l138 3 -6 42 c-14 89
-65 138 -148 144 -41 3 -63 -1 -97 -19z m147 -45 c13 -8 27 -25 32 -39 21 -53
19 -54 -100 -54 -123 0 -129 4 -90 67 30 50 101 62 158 26z"/>
<path d="M2324 1626 c-49 -22 -84 -76 -91 -139 -7 -69 8 -114 52 -157 31 -30
43 -35 100 -38 71 -5 118 15 149 63 22 33 21 35 -14 35 -16 0 -30 -5 -30 -10
0 -16 -62 -50 -93 -50 -54 0 -91 31 -110 92 -8 24 11 28 149 28 l124 0 0 38
c0 110 -128 185 -236 138z m148 -65 c15 -14 29 -37 30 -51 l3 -25 -107 -3
-108 -3 0 24 c0 54 70 102 130 90 14 -3 37 -17 52 -32z"/>
<path d="M3903 1623 c-69 -39 -103 -122 -83 -201 22 -90 73 -132 157 -132 48
0 113 29 113 50 0 5 5 10 10 10 6 0 10 -13 10 -30 0 -25 4 -30 25 -30 l25 0 0
170 0 170 -25 0 c-20 0 -25 -5 -25 -25 0 -32 -7 -31 -42 2 -36 34 -117 42
-165 16z m156 -59 c85 -71 52 -210 -54 -230 -89 -16 -167 103 -124 189 34 69
121 89 178 41z"/>
<path d="M1584 1547 l54 -84 -45 -69 c-70 -110 -68 -104 -35 -104 24 0 33 9
62 60 19 33 38 60 42 60 5 0 26 -27 46 -60 31 -49 42 -60 65 -60 15 0 27 3 27
7 0 3 -22 41 -50 84 -27 43 -50 81 -50 84 0 3 17 32 38 63 22 31 44 67 51 80
11 20 10 22 -16 22 -24 0 -33 -10 -62 -60 -19 -33 -37 -60 -40 -60 -4 1 -23
28 -43 60 -32 52 -41 60 -68 60 l-30 0 54 -83z"/>
<path d="M2662 1478 c33 -84 63 -161 65 -170 4 -13 15 -18 38 -18 32 0 32 0
85 138 29 75 59 152 67 170 13 32 13 32 -16 32 -27 0 -31 -5 -59 -82 -69 -191
-74 -202 -83 -185 -5 8 -26 64 -48 124 -22 59 -42 116 -46 126 -4 10 -18 17
-35 17 l-28 0 60 -152z"/>
<path d="M3453 1618 c3 -7 33 -83 67 -168 l62 -155 -31 -75 c-17 -41 -31 -79
-31 -83 0 -5 12 -7 26 -5 24 3 34 22 119 231 119 290 113 269 79 265 -25 -3
-31 -13 -77 -136 -28 -73 -54 -129 -58 -125 -3 5 -28 65 -54 136 -46 124 -48
127 -77 127 -20 0 -28 -4 -25 -12z"/>
<path d="M4411 783 c2 -79 6 -70 11 25 2 28 0 52 -4 52 -5 0 -7 -35 -7 -77z"/>
<path d="M360 755 c0 -109 18 -130 22 -27 l3 67 36 -70 36 -69 36 74 35 75 1
-72 c1 -42 5 -73 11 -73 6 0 10 38 10 95 0 55 -4 95 -10 95 -5 0 -25 -34 -44
-75 -19 -41 -37 -75 -41 -75 -3 0 -21 34 -40 75 -18 41 -39 75 -44 75 -7 0
-11 -35 -11 -95z"/>
<path d="M610 845 c0 -3 11 -28 25 -55 14 -28 25 -66 25 -90 0 -22 5 -40 10
-40 6 0 10 16 10 35 0 20 14 62 30 95 17 33 27 60 22 60 -4 0 -18 -20 -30 -45
-12 -25 -26 -45 -30 -45 -5 0 -17 18 -27 40 -17 37 -35 61 -35 45z"/>
<path d="M912 753 c1 -54 3 -79 5 -55 4 39 6 42 34 42 49 0 69 16 69 55 0 40
-20 55 -74 55 l-36 0 2 -97z m89 61 c20 -24 -1 -48 -45 -52 -35 -3 -36 -2 -36
32 0 34 2 36 34 36 18 0 39 -7 47 -16z"/>
<path d="M1092 758 l-2 -98 40 0 c22 0 40 5 40 10 0 6 -16 10 -35 10 l-34 0
-4 88 -3 87 -2 -97z"/>
<path d="M1230 755 l0 -95 45 0 c25 0 45 5 45 10 0 6 -18 10 -40 10 -38 0 -40
2 -40 30 0 28 3 30 35 30 19 0 35 5 35 10 0 6 -16 10 -35 10 -33 0 -35 2 -35
35 0 34 1 35 40 35 22 0 40 5 40 10 0 6 -20 10 -45 10 l-45 0 0 -95z"/>
<path d="M1445 838 c-2 -7 -18 -50 -34 -95 -17 -46 -26 -83 -21 -83 5 0 12 9
15 20 5 16 15 20 55 20 41 0 48 -3 53 -22 4 -12 9 -19 13 -15 9 8 -56 187 -68
187 -5 0 -11 -6 -13 -12z m36 -73 l17 -45 -40 0 c-34 0 -39 3 -33 18 4 9 12
29 17 45 5 15 13 27 17 27 3 0 13 -20 22 -45z"/>
<path d="M1616 837 c-12 -9 -17 -23 -14 -42 2 -25 10 -32 45 -45 46 -15 60
-35 42 -56 -16 -19 -49 -17 -72 4 -19 16 -19 16 -16 -3 11 -55 114 -33 107 23
-2 21 -12 30 -45 42 -52 19 -56 24 -48 49 4 15 15 21 35 21 16 0 32 -4 35 -10
3 -5 12 -10 18 -10 19 1 -33 40 -52 40 -10 0 -25 -6 -35 -13z"/>
<path d="M1780 780 c0 -62 3 -74 25 -95 13 -14 34 -25 45 -25 11 0 32 11 45
25 22 21 25 33 25 95 0 40 -4 70 -10 70 -6 0 -10 -31 -10 -73 0 -80 -9 -97
-50 -97 -41 0 -50 17 -50 97 0 42 -4 73 -10 73 -6 0 -10 -30 -10 -70z"/>
<path d="M1990 755 c0 -57 4 -95 10 -95 6 0 10 18 10 40 0 53 22 53 52 0 13
-22 29 -40 36 -40 8 0 4 13 -12 37 l-25 36 24 23 c30 28 31 48 5 74 -13 13
-33 20 -60 20 l-40 0 0 -95z m95 40 c0 -27 -3 -30 -37 -33 -38 -3 -38 -3 -38
33 0 36 0 36 38 33 34 -3 37 -6 37 -33z"/>
<path d="M2180 755 l0 -95 45 0 c25 0 45 5 45 10 0 6 -16 10 -35 10 -32 0 -35
2 -35 30 0 28 3 30 35 30 19 0 35 5 35 10 0 6 -16 10 -35 10 -33 0 -35 2 -35
35 0 33 2 35 35 35 19 0 35 5 35 10 0 6 -20 10 -45 10 l-45 0 0 -95z"/>
<path d="M2440 840 c0 -5 11 -10 25 -10 25 0 25 -1 25 -85 0 -50 4 -85 10 -85
6 0 10 35 10 85 0 84 0 85 25 85 14 0 25 5 25 10 0 6 -27 10 -60 10 -33 0 -60
-4 -60 -10z"/>
<path d="M2661 836 c-26 -15 -50 -51 -51 -79 0 -32 28 -74 59 -87 52 -21 105
3 119 55 24 85 -53 152 -127 111z m98 -32 c12 -15 21 -37 21 -49 0 -12 -9 -34
-21 -49 -41 -52 -129 -19 -129 49 0 70 87 103 129 49z"/>
<path d="M2960 755 c0 -57 4 -95 10 -95 6 0 10 18 10 40 l0 40 50 0 50 0 0
-40 c0 -22 5 -40 10 -40 6 0 10 38 10 95 0 57 -4 95 -10 95 -5 0 -10 -20 -10
-45 l0 -45 -50 0 -50 0 0 45 c0 25 -4 45 -10 45 -6 0 -10 -38 -10 -95z"/>
<path d="M3170 755 l0 -95 45 0 c25 0 45 5 45 10 0 6 -16 10 -35 10 -32 0 -35
2 -35 30 0 28 3 30 35 30 19 0 35 5 35 10 0 6 -16 10 -35 10 -33 0 -35 2 -35
35 0 33 2 35 35 35 19 0 35 5 35 10 0 6 -20 10 -45 10 l-45 0 0 -95z"/>
<path d="M3330 755 l0 -95 46 0 c27 0 43 4 39 10 -3 6 -19 10 -36 10 l-29 0 0
85 c0 50 -4 85 -10 85 -6 0 -10 -38 -10 -95z"/>
<path d="M3470 755 c0 -57 4 -95 10 -95 6 0 10 18 10 40 0 37 2 40 28 40 38 0
72 26 72 55 0 31 -35 55 -82 55 l-38 0 0 -95z m99 57 c15 -28 -5 -52 -44 -52
-33 0 -35 2 -35 35 0 33 2 35 35 35 23 0 38 -6 44 -18z"/>
<path d="M3750 843 c0 -5 14 -30 30 -58 18 -30 30 -66 31 -90 l2 -40 6 40 c4
22 19 63 34 92 29 57 31 63 19 63 -5 0 -17 -18 -27 -40 -10 -23 -22 -43 -27
-46 -4 -3 -18 15 -30 40 -19 41 -38 60 -38 39z"/>
<path d="M3981 836 c-26 -15 -50 -51 -51 -79 0 -32 28 -74 59 -87 52 -21 105
3 119 55 24 85 -53 152 -127 111z m98 -32 c12 -15 21 -37 21 -49 0 -12 -9 -34
-21 -49 -41 -52 -129 -19 -129 49 0 70 87 103 129 49z"/>
<path d="M4182 773 c-2 -78 0 -84 23 -99 30 -19 81 -11 95 16 13 25 13 160 0
160 -6 0 -10 -33 -10 -79 0 -84 -4 -91 -55 -91 -33 0 -39 14 -46 100 l-6 75
-1 -82z"/>
<path d="M4410 674 c0 -8 5 -12 10 -9 6 4 8 11 5 16 -9 14 -15 11 -15 -7z"/>
</g>
</svg>
